<svg id="svg" version="1.1" xmlns="http://www.w3.org/2000/svg" xmlns:xlink="http://www.w3.org/1999/xlink" width="400" height="400" viewBox="0, 0, 400,400"><g id="svgg"><path id="path0" d="M323.200 68.800 C 323.200 69.301,323.624 69.301,324.400 68.800 C 324.885 68.486,324.828 68.411,324.100 68.406 C 323.605 68.403,323.200 68.580,323.200 68.800 M340.800 69.600 C 340.800 69.820,341.160 70.000,341.600 70.000 C 342.040 70.000,342.400 69.820,342.400 69.600 C 342.400 69.380,342.040 69.200,341.600 69.200 C 341.160 69.200,340.800 69.380,340.800 69.600 M355.203 76.700 C 355.204 76.865,355.789 77.326,356.503 77.724 L 357.800 78.448 356.717 77.424 C 355.604 76.371,355.198 76.177,355.203 76.700 M359.600 81.018 C 359.600 81.364,361.631 83.302,361.808 83.125 C 362.002 82.931,360.210 80.800,359.853 80.800 C 359.714 80.800,359.600 80.898,359.600 81.018 M367.822 115.625 C 365.338 125.842,360.312 132.199,348.204 140.434 C 346.002 141.932,341.770 144.879,338.800 146.983 C 335.830 149.087,331.240 152.277,328.600 154.072 C 325.960 155.867,323.710 157.449,323.600 157.586 C 323.490 157.723,321.600 159.077,319.400 160.593 C 317.200 162.110,314.680 163.859,313.800 164.482 C 311.412 166.169,305.010 170.654,300.757 173.618 C 298.691 175.058,296.242 176.768,295.315 177.418 L 293.630 178.600 293.615 255.100 L 293.600 331.600 322.000 331.600 C 340.667 331.600,350.400 331.463,350.400 331.200 C 350.400 330.980,350.940 330.800,351.600 330.800 C 352.260 330.800,352.800 330.620,352.800 330.400 C 352.800 330.180,353.124 330.000,353.520 330.000 C 354.414 330.000,356.393 329.106,356.397 328.700 C 356.399 328.535,356.670 328.400,357.000 328.400 C 357.330 328.400,357.600 328.220,357.600 328.000 C 357.600 327.780,357.798 327.600,358.040 327.600 C 358.281 327.600,358.983 327.060,359.600 326.400 C 360.217 325.740,360.932 325.200,361.189 325.200 C 361.692 325.200,362.800 324.230,362.800 323.789 C 362.800 323.642,363.340 323.017,364.000 322.400 C 364.660 321.783,365.200 320.991,365.200 320.640 C 365.200 320.288,365.347 320.000,365.526 320.000 C 365.992 320.000,367.600 316.869,367.600 315.962 C 367.600 315.543,367.780 315.200,368.000 315.200 C 368.220 315.200,368.400 314.660,368.400 314.000 C 368.400 313.340,368.580 312.800,368.800 312.800 C 369.066 312.800,369.200 279.200,369.200 212.800 C 369.200 156.823,369.048 112.800,368.854 112.800 C 368.664 112.800,368.199 114.071,367.822 115.625 " stroke="none" fill="#04ac43" fill-rule="evenodd"></path><path id="path1" d="M57.600 69.600 C 57.600 69.820,57.870 70.000,58.200 70.000 C 58.530 70.000,58.800 69.820,58.800 69.600 C 58.800 69.380,58.530 69.200,58.200 69.200 C 57.870 69.200,57.600 69.380,57.600 69.600 M78.800 69.600 C 78.800 69.820,79.070 70.000,79.400 70.000 C 79.730 70.000,80.000 69.820,80.000 69.600 C 80.000 69.380,79.730 69.200,79.400 69.200 C 79.070 69.200,78.800 69.380,78.800 69.600 M50.000 72.800 C 50.000 73.020,50.270 73.200,50.600 73.200 C 50.930 73.200,51.200 73.020,51.200 72.800 C 51.200 72.580,50.930 72.400,50.600 72.400 C 50.270 72.400,50.000 72.580,50.000 72.800 M45.200 76.000 C 45.200 76.220,44.930 76.400,44.600 76.400 C 44.270 76.400,44.000 76.580,44.000 76.800 C 44.000 77.495,44.987 77.233,45.507 76.400 C 45.803 75.926,45.843 75.600,45.603 75.600 C 45.382 75.600,45.200 75.780,45.200 76.000 M39.260 81.468 C 38.519 82.269,39.009 82.648,39.784 81.873 C 40.126 81.531,40.270 81.168,40.103 81.067 C 39.936 80.967,39.557 81.147,39.260 81.468 M32.400 93.400 C 32.400 93.730,32.580 94.000,32.800 94.000 C 33.020 94.000,33.200 93.730,33.200 93.400 C 33.200 93.070,33.020 92.800,32.800 92.800 C 32.580 92.800,32.400 93.070,32.400 93.400 M30.800 212.576 C 30.800 278.663,30.935 312.436,31.200 312.600 C 31.420 312.736,31.600 313.377,31.600 314.024 C 31.600 314.671,31.780 315.200,32.000 315.200 C 32.220 315.200,32.400 315.543,32.400 315.962 C 32.400 316.869,34.008 320.000,34.474 320.000 C 34.653 320.000,34.800 320.266,34.800 320.591 C 34.800 321.210,38.398 325.200,38.956 325.200 C 39.134 325.200,39.783 325.740,40.400 326.400 C 41.017 327.060,41.769 327.600,42.072 327.600 C 42.375 327.600,42.883 327.960,43.200 328.400 C 43.517 328.840,44.097 329.200,44.488 329.200 C 44.880 329.200,45.200 329.380,45.200 329.600 C 45.200 329.820,45.650 330.000,46.200 330.000 C 46.750 330.000,47.200 330.180,47.200 330.400 C 47.200 330.620,47.740 330.800,48.400 330.800 C 49.060 330.800,49.600 330.980,49.600 331.200 C 49.600 331.463,59.400 331.600,78.200 331.600 L 106.800 331.600 106.775 255.100 L 106.750 178.600 102.511 175.800 C 100.180 174.260,98.076 172.812,97.836 172.583 C 97.596 172.354,95.240 170.679,92.600 168.862 C 89.960 167.045,85.460 163.916,82.600 161.909 C 79.740 159.902,75.690 157.063,73.600 155.600 C 60.615 146.510,56.999 143.980,53.600 141.602 C 51.510 140.140,48.540 138.057,47.000 136.974 C 40.728 132.564,32.800 121.953,32.800 117.969 C 32.800 117.687,32.626 116.904,32.414 116.228 C 32.202 115.553,31.928 114.505,31.806 113.900 C 30.897 109.387,30.800 118.941,30.800 212.576 " stroke="none" fill="#4484f3" fill-rule="evenodd"></path><path id="path2" d="M66.700 68.900 C 66.588 69.236,65.624 69.400,63.767 69.400 C 62.102 69.400,60.789 69.599,60.471 69.900 C 60.181 70.175,59.516 70.400,58.995 70.400 C 58.474 70.400,57.927 70.595,57.780 70.832 C 57.633 71.070,57.093 71.160,56.581 71.031 C 56.068 70.902,55.529 70.992,55.381 71.230 C 55.234 71.469,53.558 72.411,51.657 73.325 C 49.756 74.238,47.948 75.228,47.639 75.525 C 47.330 75.822,46.130 76.766,44.971 77.622 C 43.811 78.478,42.264 79.921,41.532 80.829 C 40.799 81.736,39.676 83.103,39.036 83.865 C 37.766 85.378,36.785 86.979,35.708 89.300 C 35.325 90.125,34.809 90.800,34.561 90.800 C 34.303 90.800,34.188 91.206,34.293 91.753 C 34.393 92.277,34.278 92.828,34.038 92.977 C 33.797 93.125,33.600 93.676,33.600 94.200 C 33.600 94.724,33.420 95.264,33.200 95.400 C 32.980 95.536,32.800 96.092,32.800 96.636 C 32.800 97.180,32.567 97.715,32.282 97.824 C 31.907 97.968,31.809 98.737,31.928 100.606 C 32.062 102.716,31.974 103.235,31.446 103.438 C 30.581 103.770,30.489 109.795,31.344 110.123 C 31.653 110.242,32.007 111.252,32.164 112.466 C 33.489 122.698,39.146 130.994,49.800 138.327 C 52.440 140.145,54.870 141.853,55.200 142.125 C 55.530 142.397,57.960 144.108,60.600 145.929 C 68.645 151.476,73.370 154.781,74.001 155.303 C 74.331 155.576,76.311 156.960,78.401 158.379 C 80.490 159.797,82.260 161.102,82.333 161.279 C 82.407 161.455,82.707 161.600,83.000 161.600 C 83.293 161.600,83.593 161.745,83.667 161.921 C 83.740 162.098,85.510 163.401,87.600 164.818 C 89.690 166.235,91.580 167.543,91.800 167.726 C 92.020 167.908,94.270 169.489,96.800 171.240 C 99.330 172.991,101.717 174.688,102.105 175.012 C 102.492 175.335,102.987 175.600,103.205 175.600 C 103.422 175.600,103.600 175.747,103.600 175.926 C 103.600 176.106,104.320 176.657,105.200 177.152 L 106.800 178.051 106.800 177.026 C 106.800 176.462,106.980 176.000,107.200 176.000 C 107.420 176.000,107.600 176.180,107.600 176.400 C 107.600 176.620,107.920 176.800,108.312 176.800 C 108.703 176.800,109.283 177.160,109.600 177.600 C 109.917 178.040,110.407 178.400,110.688 178.400 C 110.970 178.400,111.200 178.580,111.200 178.800 C 111.200 179.020,111.436 179.200,111.725 179.200 C 112.013 179.200,112.636 179.560,113.108 180.000 C 113.580 180.440,114.204 180.800,114.495 180.800 C 114.786 180.800,115.283 181.160,115.600 181.600 C 115.917 182.040,116.414 182.400,116.705 182.400 C 116.996 182.400,117.620 182.760,118.092 183.200 C 118.564 183.640,119.187 184.000,119.475 184.000 C 119.764 184.000,120.000 184.158,120.000 184.351 C 120.000 184.545,120.540 184.927,121.200 185.200 C 121.860 185.473,122.400 185.855,122.400 186.049 C 122.400 186.242,122.720 186.400,123.112 186.400 C 123.503 186.400,124.083 186.760,124.400 187.200 C 124.717 187.640,125.282 188.000,125.655 188.000 C 126.028 188.000,126.393 188.149,126.467 188.332 C 126.692 188.892,130.950 191.600,131.606 191.600 C 131.946 191.600,132.483 191.960,132.800 192.400 C 133.117 192.840,133.657 193.200,134.000 193.200 C 134.343 193.200,134.883 193.560,135.200 194.000 C 135.517 194.440,136.014 194.800,136.305 194.800 C 136.596 194.800,137.220 195.160,137.692 195.600 C 138.164 196.040,138.787 196.400,139.075 196.400 C 139.364 196.400,139.600 196.580,139.600 196.800 C 139.600 197.020,139.920 197.200,140.312 197.200 C 140.703 197.200,141.283 197.560,141.600 198.000 C 141.917 198.440,142.431 198.800,142.741 198.800 C 143.052 198.800,143.597 199.116,143.953 199.503 C 144.309 199.889,145.092 200.458,145.693 200.767 C 146.295 201.075,147.142 201.659,147.577 202.064 C 148.011 202.469,148.644 202.800,148.983 202.800 C 149.322 202.800,149.600 202.950,149.600 203.132 C 149.600 203.315,150.095 203.720,150.700 204.032 C 151.305 204.345,152.149 204.915,152.575 205.300 C 153.002 205.685,153.587 206.000,153.875 206.000 C 154.164 206.000,154.403 206.135,154.407 206.300 C 154.410 206.465,155.490 207.134,156.807 207.786 C 158.123 208.439,159.200 209.114,159.200 209.286 C 159.200 209.459,159.470 209.600,159.800 209.600 C 160.130 209.600,160.400 209.780,160.400 210.000 C 160.400 210.220,160.670 210.400,161.000 210.400 C 161.330 210.400,161.600 210.580,161.600 210.800 C 161.600 211.020,161.870 211.200,162.200 211.200 C 162.530 211.200,162.800 211.380,162.800 211.600 C 162.800 211.820,163.036 212.000,163.325 212.000 C 163.613 212.000,164.236 212.360,164.708 212.800 C 165.180 213.240,165.804 213.600,166.095 213.600 C 166.386 213.600,166.883 213.960,167.200 214.400 C 167.517 214.840,168.014 215.200,168.305 215.200 C 168.596 215.200,169.220 215.560,169.692 216.000 C 170.164 216.440,170.787 216.800,171.075 216.800 C 171.364 216.800,171.600 216.958,171.600 217.151 C 171.600 217.345,172.140 217.727,172.800 218.000 C 173.460 218.273,174.000 218.655,174.000 218.849 C 174.000 219.042,174.320 219.200,174.712 219.200 C 175.103 219.200,175.683 219.560,176.000 220.000 C 176.317 220.440,176.725 220.800,176.906 220.800 C 177.088 220.800,178.533 221.674,180.118 222.743 C 181.703 223.811,183.405 224.813,183.900 224.970 C 184.395 225.126,184.800 225.422,184.800 225.627 C 184.800 225.832,185.120 226.000,185.512 226.000 C 185.903 226.000,186.483 226.360,186.800 226.800 C 187.117 227.240,187.614 227.600,187.905 227.600 C 188.196 227.600,188.820 227.960,189.292 228.400 C 189.764 228.840,190.387 229.200,190.675 229.200 C 190.964 229.200,191.200 229.380,191.200 229.600 C 191.200 229.820,191.520 230.000,191.912 230.000 C 192.303 230.000,192.883 230.360,193.200 230.800 C 193.517 231.240,194.007 231.600,194.288 231.600 C 194.570 231.600,194.800 231.780,194.800 232.000 C 194.800 232.220,195.070 232.400,195.400 232.400 C 195.730 232.400,196.000 232.580,196.000 232.800 C 196.000 233.020,196.270 233.200,196.600 233.200 C 196.930 233.200,197.200 233.380,197.200 233.600 C 197.200 233.820,197.436 234.000,197.725 234.000 C 198.013 234.000,198.636 234.360,199.108 234.800 C 199.580 235.240,200.204 235.600,200.495 235.600 C 200.786 235.600,201.283 235.960,201.600 236.400 C 201.917 236.840,202.414 237.200,202.705 237.200 C 202.996 237.200,203.620 237.560,204.092 238.000 C 204.564 238.440,205.187 238.800,205.475 238.800 C 205.764 238.800,206.000 238.980,206.000 239.200 C 206.000 240.093,208.313 239.570,209.537 238.400 C 210.228 237.740,211.025 237.200,211.308 237.200 C 211.591 237.200,212.083 236.840,212.400 236.400 C 212.717 235.960,213.257 235.600,213.600 235.600 C 213.943 235.600,214.483 235.240,214.800 234.800 C 215.117 234.360,215.580 234.000,215.829 234.000 C 216.078 234.000,216.846 233.460,217.537 232.800 C 218.228 232.140,218.998 231.600,219.249 231.600 C 219.501 231.600,219.997 231.284,220.353 230.897 C 220.709 230.511,221.495 229.940,222.100 229.630 C 222.705 229.319,223.200 228.915,223.200 228.732 C 223.200 228.550,223.398 228.400,223.640 228.400 C 223.881 228.400,224.583 227.860,225.200 227.200 C 225.817 226.540,226.609 226.000,226.960 226.000 C 227.312 226.000,227.600 225.847,227.600 225.661 C 227.600 225.474,228.320 224.997,229.200 224.600 C 230.080 224.203,230.800 223.738,230.800 223.566 C 230.800 223.394,231.166 223.138,231.613 222.996 C 232.060 222.854,232.862 222.302,233.395 221.769 C 233.928 221.236,234.576 220.800,234.835 220.800 C 235.094 220.800,235.597 220.484,235.953 220.097 C 236.309 219.711,237.095 219.140,237.700 218.830 C 238.305 218.519,238.800 218.115,238.800 217.932 C 238.800 217.750,239.006 217.600,239.257 217.600 C 239.508 217.600,240.229 217.060,240.860 216.400 C 241.491 215.740,242.236 215.200,242.515 215.200 C 242.795 215.200,243.283 214.840,243.600 214.400 C 243.917 213.960,244.457 213.600,244.800 213.600 C 245.143 213.600,245.683 213.240,246.000 212.800 C 246.317 212.360,246.825 212.000,247.128 212.000 C 247.431 212.000,248.183 211.460,248.800 210.800 C 249.417 210.140,250.126 209.600,250.377 209.600 C 250.628 209.600,251.051 209.419,251.317 209.198 C 251.583 208.977,253.060 207.955,254.600 206.928 C 256.140 205.900,257.460 204.911,257.533 204.730 C 257.607 204.548,257.882 204.400,258.145 204.400 C 258.408 204.400,258.883 204.040,259.200 203.600 C 259.517 203.160,260.057 202.800,260.400 202.800 C 260.743 202.800,261.283 202.440,261.600 202.000 C 261.917 201.560,262.380 201.200,262.629 201.200 C 262.878 201.200,263.646 200.660,264.337 200.000 C 265.028 199.340,265.825 198.800,266.108 198.800 C 266.391 198.800,266.883 198.440,267.200 198.000 C 267.517 197.560,268.057 197.200,268.400 197.200 C 268.743 197.200,269.283 196.840,269.600 196.400 C 269.917 195.960,270.407 195.600,270.688 195.600 C 270.970 195.600,271.200 195.420,271.200 195.200 C 271.200 194.980,271.430 194.800,271.712 194.800 C 271.993 194.800,272.483 194.440,272.800 194.000 C 273.117 193.560,273.605 193.200,273.885 193.200 C 274.164 193.200,274.618 192.840,274.893 192.400 C 275.168 191.960,275.682 191.600,276.035 191.600 C 276.388 191.600,277.093 191.240,277.600 190.800 C 278.107 190.360,278.667 190.000,278.843 190.000 C 279.019 190.000,279.614 189.550,280.164 189.000 C 280.714 188.450,281.376 188.000,281.635 188.000 C 281.894 188.000,282.397 187.684,282.753 187.297 C 283.109 186.911,283.895 186.340,284.500 186.030 C 285.105 185.719,285.600 185.315,285.600 185.132 C 285.600 184.950,285.870 184.800,286.200 184.800 C 286.530 184.800,286.800 184.620,286.800 184.400 C 286.800 184.180,287.004 184.000,287.253 184.000 C 287.502 184.000,287.997 183.684,288.353 183.297 C 288.709 182.911,289.495 182.340,290.100 182.030 C 290.705 181.719,291.200 181.315,291.200 181.132 C 291.200 180.950,291.404 180.800,291.653 180.800 C 293.663 180.800,293.600 182.073,293.601 141.239 C 293.601 100.422,293.607 100.295,295.743 93.932 C 296.920 90.426,299.896 84.772,301.181 83.600 C 301.301 83.490,302.389 82.230,303.597 80.800 C 304.806 79.370,305.931 78.140,306.097 78.067 C 306.264 77.993,306.400 77.768,306.400 77.567 C 306.400 76.915,305.418 77.177,304.396 78.100 C 303.848 78.595,302.905 79.255,302.300 79.568 C 301.695 79.880,301.200 80.285,301.200 80.468 C 301.200 80.650,300.975 80.807,300.700 80.816 C 300.425 80.825,299.577 81.365,298.815 82.016 C 298.053 82.667,297.238 83.200,297.003 83.200 C 296.769 83.200,296.317 83.560,296.000 84.000 C 295.683 84.440,295.195 84.800,294.915 84.800 C 294.636 84.800,294.182 85.160,293.907 85.600 C 293.632 86.040,293.131 86.400,292.792 86.400 C 292.454 86.400,291.917 86.760,291.600 87.200 C 291.283 87.640,290.820 88.000,290.571 88.000 C 290.322 88.000,289.554 88.540,288.863 89.200 C 288.172 89.860,287.375 90.400,287.092 90.400 C 286.809 90.400,286.317 90.760,286.000 91.200 C 285.683 91.640,285.169 92.000,284.859 92.000 C 284.548 92.000,284.002 92.315,283.644 92.700 C 283.287 93.085,282.519 93.670,281.937 94.000 C 280.525 94.801,275.935 98.022,275.271 98.678 C 274.981 98.965,274.584 99.200,274.390 99.200 C 274.195 99.200,273.586 99.650,273.036 100.200 C 272.486 100.750,271.798 101.200,271.506 101.200 C 271.215 101.200,270.717 101.560,270.400 102.000 C 270.083 102.440,269.543 102.800,269.200 102.800 C 268.857 102.800,268.317 103.160,268.000 103.600 C 267.683 104.040,267.193 104.400,266.912 104.400 C 266.630 104.400,266.400 104.580,266.400 104.800 C 266.400 105.020,266.170 105.200,265.888 105.200 C 265.607 105.200,265.117 105.560,264.800 106.000 C 264.483 106.440,263.943 106.800,263.600 106.800 C 263.257 106.800,262.717 107.160,262.400 107.600 C 262.083 108.040,261.633 108.400,261.400 108.400 C 261.167 108.400,260.717 108.760,260.400 109.200 C 260.083 109.640,259.511 110.000,259.130 110.000 C 258.748 110.000,258.023 110.405,257.518 110.900 C 257.013 111.395,256.105 112.055,255.500 112.368 C 254.895 112.680,254.400 113.085,254.400 113.268 C 254.400 113.450,254.175 113.600,253.900 113.600 C 253.625 113.601,252.877 114.051,252.238 114.600 C 251.599 115.150,250.932 115.600,250.756 115.600 C 250.580 115.600,250.023 116.005,249.518 116.500 C 249.013 116.995,248.105 117.655,247.500 117.968 C 246.895 118.280,246.400 118.685,246.400 118.868 C 246.400 119.050,246.130 119.200,245.800 119.200 C 245.470 119.200,245.200 119.350,245.200 119.532 C 245.200 119.715,244.705 120.120,244.100 120.432 C 243.495 120.745,242.523 121.495,241.940 122.100 C 241.356 122.705,240.631 123.200,240.328 123.200 C 240.025 123.200,239.517 123.560,239.200 124.000 C 238.883 124.440,238.369 124.800,238.059 124.800 C 237.748 124.800,237.203 125.117,236.847 125.506 C 236.491 125.894,235.525 126.564,234.700 126.996 C 233.875 127.428,233.200 127.921,233.200 128.091 C 233.200 128.261,232.964 128.400,232.675 128.400 C 232.387 128.400,231.764 128.760,231.292 129.200 C 230.820 129.640,230.325 130.000,230.193 130.000 C 229.874 130.000,226.773 132.414,225.953 133.300 C 225.597 133.685,225.052 134.000,224.741 134.000 C 224.431 134.000,223.917 134.360,223.600 134.800 C 223.283 135.240,222.743 135.600,222.400 135.600 C 222.057 135.600,221.517 135.960,221.200 136.400 C 220.883 136.840,220.420 137.200,220.171 137.200 C 219.922 137.200,219.154 137.740,218.463 138.400 C 217.772 139.060,217.002 139.600,216.751 139.600 C 216.499 139.600,216.003 139.916,215.647 140.303 C 215.291 140.689,214.505 141.260,213.900 141.570 C 213.295 141.881,212.800 142.285,212.800 142.468 C 212.800 142.650,212.530 142.800,212.200 142.800 C 211.870 142.800,211.600 142.980,211.600 143.200 C 211.600 143.420,211.324 143.600,210.987 143.600 C 210.651 143.600,210.271 143.870,210.145 144.200 C 210.018 144.530,209.698 144.800,209.433 144.800 C 209.168 144.800,208.602 145.115,208.175 145.500 C 206.501 147.011,205.298 147.386,204.100 146.768 C 203.495 146.455,202.651 145.885,202.225 145.500 C 201.798 145.115,201.213 144.800,200.925 144.800 C 200.636 144.800,200.400 144.623,200.400 144.408 C 200.400 144.192,199.905 143.893,199.300 143.744 C 198.695 143.594,197.909 143.141,197.553 142.736 C 197.197 142.331,196.612 142.000,196.253 142.000 C 195.894 142.000,195.600 141.820,195.600 141.600 C 195.600 141.380,195.280 141.200,194.888 141.200 C 194.497 141.200,193.917 140.840,193.600 140.400 C 193.283 139.960,192.769 139.600,192.459 139.600 C 192.148 139.600,191.603 139.284,191.247 138.897 C 190.891 138.511,190.108 137.942,189.507 137.633 C 188.905 137.325,188.058 136.741,187.623 136.336 C 187.189 135.931,186.596 135.600,186.305 135.600 C 186.014 135.600,185.517 135.240,185.200 134.800 C 184.883 134.360,184.386 134.000,184.095 134.000 C 183.804 134.000,183.180 133.640,182.708 133.200 C 182.236 132.760,181.613 132.400,181.325 132.400 C 181.036 132.400,180.800 132.242,180.800 132.049 C 180.800 131.855,180.260 131.473,179.600 131.200 C 178.940 130.927,178.400 130.545,178.400 130.351 C 178.400 130.158,178.122 130.000,177.783 130.000 C 177.444 130.000,176.806 129.664,176.365 129.253 C 175.924 128.842,174.896 128.167,174.081 127.753 C 173.267 127.339,172.540 126.865,172.467 126.700 C 172.393 126.535,172.078 126.400,171.767 126.400 C 171.455 126.400,171.200 126.220,171.200 126.000 C 171.200 125.780,170.930 125.600,170.600 125.600 C 170.270 125.600,170.000 125.420,170.000 125.200 C 170.000 124.980,169.680 124.800,169.288 124.800 C 168.897 124.800,168.317 124.440,168.000 124.000 C 167.683 123.560,167.143 123.200,166.800 123.200 C 166.457 123.200,165.917 122.840,165.600 122.400 C 165.283 121.960,164.786 121.600,164.495 121.600 C 164.204 121.600,163.580 121.240,163.108 120.800 C 162.636 120.360,162.013 120.000,161.725 120.000 C 161.436 120.000,161.200 119.820,161.200 119.600 C 161.200 119.380,160.880 119.200,160.488 119.200 C 160.097 119.200,159.517 118.840,159.200 118.400 C 158.883 117.960,158.393 117.600,158.112 117.600 C 157.830 117.600,157.600 117.420,157.600 117.200 C 157.600 116.980,157.330 116.800,157.000 116.800 C 156.670 116.800,156.400 116.620,156.400 116.400 C 156.400 116.180,156.130 116.000,155.800 116.000 C 155.470 116.000,155.200 115.841,155.200 115.647 C 155.200 115.452,154.885 115.193,154.500 115.071 C 153.591 114.783,151.647 113.588,150.642 112.700 C 150.206 112.315,149.613 112.000,149.325 112.000 C 149.036 112.000,148.800 111.847,148.800 111.661 C 148.800 111.474,148.080 110.997,147.200 110.600 C 146.320 110.203,145.600 109.726,145.600 109.539 C 145.600 109.353,145.240 109.200,144.800 109.200 C 144.360 109.200,144.000 109.020,144.000 108.800 C 144.000 108.580,143.680 108.400,143.288 108.400 C 142.897 108.400,142.317 108.040,142.000 107.600 C 141.683 107.160,141.276 106.800,141.095 106.800 C 140.914 106.800,140.380 106.440,139.908 106.000 C 139.436 105.560,138.813 105.200,138.525 105.200 C 138.236 105.200,138.000 105.020,138.000 104.800 C 138.000 104.580,137.730 104.400,137.400 104.400 C 137.070 104.400,136.800 104.220,136.800 104.000 C 136.800 103.780,136.530 103.600,136.200 103.600 C 135.870 103.600,135.600 103.420,135.600 103.200 C 135.600 102.980,135.280 102.800,134.888 102.800 C 134.497 102.800,133.917 102.440,133.600 102.000 C 133.283 101.560,132.786 101.200,132.495 101.200 C 132.204 101.200,131.580 100.840,131.108 100.400 C 130.636 99.960,130.013 99.600,129.725 99.600 C 129.436 99.600,129.200 99.442,129.200 99.249 C 129.200 99.055,128.660 98.673,128.000 98.400 C 127.340 98.127,126.800 97.745,126.800 97.551 C 126.800 97.358,126.455 97.200,126.033 97.200 C 125.612 97.200,125.207 97.065,125.133 96.900 C 124.913 96.405,120.632 93.600,120.097 93.600 C 119.823 93.600,119.600 93.420,119.600 93.200 C 119.600 92.980,119.330 92.800,119.000 92.800 C 118.670 92.800,118.400 92.620,118.400 92.400 C 118.400 92.180,118.080 92.000,117.688 92.000 C 117.297 92.000,116.717 91.640,116.400 91.200 C 116.083 90.760,115.543 90.400,115.200 90.400 C 114.857 90.400,114.317 90.040,114.000 89.600 C 113.683 89.160,113.186 88.800,112.895 88.800 C 112.604 88.800,111.980 88.440,111.508 88.000 C 111.036 87.560,110.413 87.200,110.125 87.200 C 109.836 87.200,109.600 87.020,109.600 86.800 C 109.600 86.580,109.412 86.400,109.183 86.400 C 108.954 86.400,108.380 86.040,107.908 85.600 C 107.436 85.160,106.813 84.800,106.525 84.800 C 106.236 84.800,106.000 84.642,106.000 84.449 C 106.000 84.255,105.460 83.873,104.800 83.600 C 104.140 83.327,103.600 82.945,103.600 82.751 C 103.600 82.558,103.364 82.400,103.075 82.400 C 102.787 82.400,102.164 82.040,101.692 81.600 C 101.220 81.160,100.638 80.800,100.400 80.800 C 100.162 80.800,99.580 80.440,99.108 80.000 C 98.636 79.560,98.013 79.200,97.725 79.200 C 97.436 79.200,97.200 79.047,97.200 78.861 C 97.200 78.674,96.480 78.197,95.600 77.800 C 94.720 77.403,94.000 76.926,94.000 76.739 C 94.000 76.553,93.655 76.400,93.233 76.400 C 92.812 76.400,92.375 76.175,92.264 75.900 C 92.110 75.521,91.962 75.543,91.653 75.987 C 91.307 76.486,91.129 76.441,90.476 75.687 C 90.052 75.199,89.412 74.800,89.053 74.800 C 88.694 74.800,88.400 74.620,88.400 74.400 C 88.400 74.180,88.175 74.000,87.900 74.001 C 87.033 74.003,83.986 72.218,84.142 71.800 C 84.227 71.572,83.429 71.367,82.290 71.324 C 81.189 71.283,80.098 71.058,79.864 70.824 C 79.631 70.591,79.020 70.400,78.507 70.400 C 77.995 70.400,77.473 70.135,77.349 69.810 C 77.170 69.345,76.640 69.271,74.839 69.459 C 73.037 69.647,72.418 69.561,71.906 69.049 C 71.103 68.246,66.958 68.127,66.700 68.900 " stroke="none" fill="#e23c32" fill-rule="evenodd"></path><path id="path3" d="M327.400 68.800 C 327.555 69.051,326.671 69.200,325.024 69.200 C 323.541 69.200,322.400 69.374,322.400 69.600 C 322.400 69.820,321.950 70.000,321.400 70.000 C 320.850 70.000,320.400 70.180,320.400 70.400 C 320.400 70.620,319.770 70.800,319.000 70.800 C 318.230 70.800,317.600 70.980,317.600 71.200 C 317.600 71.420,317.150 71.600,316.600 71.600 C 316.050 71.600,315.600 71.780,315.600 72.000 C 315.600 72.220,315.330 72.400,315.000 72.400 C 314.670 72.400,314.400 72.580,314.400 72.800 C 314.400 73.020,313.950 73.200,313.400 73.200 C 312.850 73.200,312.400 73.380,312.400 73.600 C 312.400 73.820,312.130 74.000,311.800 74.000 C 311.470 74.000,311.200 74.180,311.200 74.400 C 311.200 74.620,310.945 74.800,310.633 74.800 C 310.322 74.800,310.007 74.978,309.933 75.197 C 309.860 75.415,309.305 75.634,308.700 75.684 C 308.087 75.734,307.600 76.014,307.600 76.316 C 307.600 76.902,306.662 77.988,306.129 78.019 C 305.948 78.030,304.990 79.032,304.000 80.246 C 303.010 81.460,301.925 82.757,301.589 83.127 C 298.367 86.677,295.308 93.700,294.172 100.155 C 293.588 103.474,293.268 178.000,293.838 178.000 C 294.099 178.000,296.479 176.387,296.800 175.993 C 296.910 175.858,297.900 175.141,299.000 174.400 C 302.377 172.125,315.388 163.046,315.600 162.816 C 315.710 162.697,316.101 162.420,316.469 162.200 C 316.836 161.980,321.606 158.663,327.069 154.830 C 332.531 150.996,338.710 146.663,340.800 145.201 C 342.890 143.739,347.018 140.846,349.974 138.771 C 357.689 133.357,361.115 129.796,364.380 123.800 C 365.893 121.019,368.000 114.847,368.000 113.193 C 368.000 112.568,368.270 111.787,368.600 111.457 C 369.309 110.748,369.493 102.400,368.800 102.400 C 368.578 102.400,368.400 101.341,368.400 100.024 C 368.400 98.717,368.220 97.536,368.000 97.400 C 367.780 97.264,367.600 96.713,367.600 96.176 C 367.600 95.639,367.420 95.200,367.200 95.200 C 366.980 95.200,366.800 94.570,366.800 93.800 C 366.800 93.030,366.620 92.400,366.400 92.400 C 366.180 92.400,366.000 91.950,366.000 91.400 C 366.000 90.850,365.820 90.400,365.600 90.400 C 365.380 90.400,365.200 90.130,365.200 89.800 C 365.200 89.470,365.020 89.200,364.800 89.200 C 364.580 89.200,364.400 88.840,364.400 88.400 C 364.400 87.960,364.220 87.600,364.000 87.600 C 363.780 87.600,363.600 87.330,363.600 87.000 C 363.600 86.670,363.420 86.400,363.200 86.400 C 362.980 86.400,362.800 86.112,362.800 85.760 C 362.800 85.409,362.260 84.617,361.600 84.000 C 360.940 83.383,360.400 82.764,360.400 82.624 C 360.400 82.220,355.298 77.200,354.888 77.200 C 354.685 77.200,353.954 76.660,353.263 76.000 C 352.572 75.340,351.826 74.800,351.604 74.800 C 351.382 74.800,351.200 74.654,351.200 74.475 C 351.200 74.296,350.570 73.902,349.800 73.600 C 349.030 73.298,348.400 72.904,348.400 72.725 C 348.400 72.546,348.040 72.400,347.600 72.400 C 347.160 72.400,346.800 72.220,346.800 72.000 C 346.800 71.780,346.440 71.600,346.000 71.600 C 345.560 71.600,345.200 71.420,345.200 71.200 C 345.200 70.980,344.570 70.800,343.800 70.800 C 343.030 70.800,342.400 70.620,342.400 70.400 C 342.400 70.180,341.860 70.000,341.200 70.000 C 340.540 70.000,340.000 69.820,340.000 69.600 C 340.000 69.371,338.800 69.200,337.200 69.200 C 335.600 69.200,334.400 69.029,334.400 68.800 C 334.400 68.563,332.925 68.400,330.776 68.400 C 328.463 68.400,327.242 68.545,327.400 68.800 " stroke="none" fill="#fbbb04" fill-rule="evenodd"></path><path id="path4" d="M61.698 68.900 C 61.898 69.511,63.662 69.752,65.463 69.415 C 67.711 68.993,66.953 68.400,64.167 68.400 C 62.239 68.400,61.577 68.534,61.698 68.900 M71.600 68.744 C 71.600 69.681,74.963 69.907,76.097 69.045 C 76.700 68.587,76.444 68.506,74.197 68.444 C 72.769 68.405,71.600 68.540,71.600 68.744 M324.400 68.800 C 323.967 69.080,324.334 69.189,325.724 69.194 C 326.906 69.198,327.552 69.046,327.400 68.800 C 327.086 68.291,325.187 68.291,324.400 68.800 M334.400 68.800 C 334.400 69.020,335.300 69.200,336.400 69.200 C 337.500 69.200,338.400 69.020,338.400 68.800 C 338.400 68.580,337.500 68.400,336.400 68.400 C 335.300 68.400,334.400 68.580,334.400 68.800 M58.800 69.600 C 58.800 69.820,58.170 70.000,57.400 70.000 C 56.630 70.000,56.000 70.169,56.000 70.376 C 56.000 71.054,56.859 71.303,57.738 70.878 C 58.212 70.649,59.095 70.355,59.700 70.223 C 61.074 69.925,61.145 69.200,59.800 69.200 C 59.250 69.200,58.800 69.380,58.800 69.600 M77.298 69.700 C 77.389 69.975,77.899 70.262,78.431 70.338 C 78.964 70.414,79.580 70.619,79.800 70.793 C 80.020 70.967,81.010 71.242,82.000 71.404 C 82.990 71.566,83.890 71.819,84.000 71.967 C 84.378 72.475,87.246 74.000,87.823 74.000 C 88.140 74.000,88.400 74.180,88.400 74.400 C 88.400 74.620,88.694 74.800,89.053 74.800 C 89.412 74.800,90.043 75.189,90.456 75.664 C 90.868 76.139,91.325 76.409,91.471 76.263 C 91.821 75.912,90.012 74.000,89.330 74.000 C 89.039 74.000,88.800 73.820,88.800 73.600 C 88.800 73.380,88.440 73.200,88.000 73.200 C 87.560 73.200,87.200 73.020,87.200 72.800 C 87.200 72.580,86.840 72.400,86.400 72.400 C 85.960 72.400,85.600 72.220,85.600 72.000 C 85.600 71.780,85.240 71.600,84.800 71.600 C 84.360 71.600,84.000 71.420,84.000 71.200 C 84.000 70.980,83.460 70.800,82.800 70.800 C 82.140 70.800,81.600 70.620,81.600 70.400 C 81.600 70.180,80.970 70.000,80.200 70.000 C 79.430 70.000,78.800 69.820,78.800 69.600 C 78.800 69.380,78.425 69.200,77.967 69.200 C 77.479 69.200,77.202 69.407,77.298 69.700 M321.000 69.600 C 320.864 69.820,321.123 70.000,321.576 70.000 C 322.029 70.000,322.400 69.820,322.400 69.600 C 322.400 69.380,322.141 69.200,321.824 69.200 C 321.507 69.200,321.136 69.380,321.000 69.600 M318.400 70.400 C 318.400 70.620,318.850 70.800,319.400 70.800 C 319.950 70.800,320.400 70.620,320.400 70.400 C 320.400 70.180,319.950 70.000,319.400 70.000 C 318.850 70.000,318.400 70.180,318.400 70.400 M342.400 70.400 C 342.400 70.620,342.760 70.800,343.200 70.800 C 343.640 70.800,344.000 70.620,344.000 70.400 C 344.000 70.180,343.640 70.000,343.200 70.000 C 342.760 70.000,342.400 70.180,342.400 70.400 M53.600 71.200 C 53.600 71.420,53.280 71.600,52.888 71.600 C 52.497 71.600,51.917 71.960,51.600 72.400 C 51.261 72.870,50.565 73.200,49.912 73.200 C 49.300 73.200,48.800 73.380,48.800 73.600 C 48.800 73.820,48.530 74.000,48.200 74.000 C 47.870 74.000,47.600 74.180,47.600 74.400 C 47.600 74.620,47.375 74.801,47.100 74.801 C 46.825 74.802,46.240 75.341,45.800 76.000 C 45.360 76.659,44.700 77.198,44.333 77.199 C 43.588 77.200,40.495 80.007,40.315 80.845 C 40.252 81.140,39.525 82.047,38.700 82.859 C 37.875 83.672,37.200 84.582,37.200 84.880 C 37.200 85.179,36.840 85.683,36.400 86.000 C 35.960 86.317,35.600 86.897,35.600 87.288 C 35.600 87.680,35.420 88.000,35.200 88.000 C 34.980 88.000,34.800 88.360,34.800 88.800 C 34.800 89.240,34.620 89.600,34.400 89.600 C 34.180 89.600,34.000 89.870,34.000 90.200 C 34.000 91.332,35.012 90.799,35.708 89.300 C 36.785 86.979,37.766 85.378,39.036 83.865 C 39.676 83.103,40.799 81.736,41.532 80.829 C 42.264 79.921,43.811 78.478,44.971 77.622 C 46.130 76.766,47.330 75.822,47.639 75.525 C 47.948 75.228,49.756 74.238,51.657 73.325 C 55.409 71.522,56.257 70.800,54.624 70.800 C 54.061 70.800,53.600 70.980,53.600 71.200 M316.000 71.200 C 316.000 71.420,316.360 71.600,316.800 71.600 C 317.240 71.600,317.600 71.420,317.600 71.200 C 317.600 70.980,317.240 70.800,316.800 70.800 C 316.360 70.800,316.000 70.980,316.000 71.200 M345.200 71.200 C 345.200 71.420,345.470 71.600,345.800 71.600 C 346.130 71.600,346.400 71.420,346.400 71.200 C 346.400 70.980,346.130 70.800,345.800 70.800 C 345.470 70.800,345.200 70.980,345.200 71.200 M314.400 72.000 C 314.400 72.220,314.040 72.400,313.600 72.400 C 313.160 72.400,312.800 72.580,312.800 72.800 C 312.800 73.020,313.160 73.200,313.600 73.200 C 314.040 73.200,314.400 73.020,314.400 72.800 C 314.400 72.580,314.670 72.400,315.000 72.400 C 315.330 72.400,315.600 72.220,315.600 72.000 C 315.600 71.780,315.330 71.600,315.000 71.600 C 314.670 71.600,314.400 71.780,314.400 72.000 M346.800 72.000 C 346.800 72.220,347.070 72.400,347.400 72.400 C 347.730 72.400,348.000 72.220,348.000 72.000 C 348.000 71.780,347.730 71.600,347.400 71.600 C 347.070 71.600,346.800 71.780,346.800 72.000 M311.200 73.600 C 311.200 73.820,311.007 74.000,310.771 74.000 C 310.132 74.000,309.059 75.195,309.407 75.519 C 309.573 75.674,309.790 75.575,309.888 75.300 C 309.986 75.025,310.322 74.800,310.633 74.800 C 310.945 74.800,311.200 74.620,311.200 74.400 C 311.200 74.180,311.470 74.000,311.800 74.000 C 312.130 74.000,312.400 73.820,312.400 73.600 C 312.400 73.380,312.130 73.200,311.800 73.200 C 311.470 73.200,311.200 73.380,311.200 73.600 M349.800 73.600 C 349.936 73.820,350.307 74.000,350.624 74.000 C 350.941 74.000,351.200 74.180,351.200 74.400 C 351.200 74.620,351.382 74.800,351.604 74.800 C 351.826 74.800,352.572 75.340,353.263 76.000 C 354.418 77.104,355.200 77.505,355.200 76.993 C 355.200 76.879,354.570 76.174,353.800 75.426 C 353.030 74.679,352.400 74.162,352.400 74.279 C 352.400 74.396,351.956 74.201,351.414 73.846 C 350.312 73.124,349.422 72.988,349.800 73.600 M306.643 77.033 C 306.267 78.011,306.349 78.108,307.000 77.457 C 307.680 76.777,307.767 76.400,307.243 76.400 C 307.046 76.400,306.776 76.685,306.643 77.033 M355.600 77.367 C 355.600 77.767,359.277 81.256,359.482 81.051 C 359.842 80.692,358.121 78.626,356.838 77.877 C 356.157 77.480,355.600 77.250,355.600 77.367 M360.400 82.618 C 360.400 83.032,362.449 84.884,362.667 84.667 C 362.787 84.547,362.424 83.988,361.861 83.424 C 360.865 82.428,360.400 82.172,360.400 82.618 M362.800 85.725 C 362.800 86.096,362.980 86.400,363.200 86.400 C 363.420 86.400,363.600 86.670,363.600 87.000 C 363.600 87.330,363.780 87.600,364.000 87.600 C 364.644 87.600,364.462 86.834,363.600 85.908 C 362.922 85.180,362.800 85.152,362.800 85.725 M364.400 88.600 C 364.400 88.930,364.580 89.200,364.800 89.200 C 365.020 89.200,365.200 88.930,365.200 88.600 C 365.200 88.270,365.020 88.000,364.800 88.000 C 364.580 88.000,364.400 88.270,364.400 88.600 M33.200 92.600 C 33.200 93.370,33.020 94.000,32.800 94.000 C 32.580 94.000,32.400 94.450,32.400 95.000 C 32.400 95.550,32.240 96.000,32.045 96.000 C 31.850 96.000,31.613 96.529,31.518 97.175 C 31.367 98.208,31.434 98.303,32.073 97.961 C 32.473 97.747,32.800 97.139,32.800 96.610 C 32.800 96.080,32.980 95.536,33.200 95.400 C 33.420 95.264,33.600 94.724,33.600 94.200 C 33.600 93.676,33.780 93.136,34.000 93.000 C 34.626 92.613,34.469 91.200,33.800 91.200 C 33.381 91.200,33.200 91.622,33.200 92.600 M366.000 91.800 C 366.000 92.130,366.180 92.400,366.400 92.400 C 366.620 92.400,366.800 92.130,366.800 91.800 C 366.800 91.470,366.620 91.200,366.400 91.200 C 366.180 91.200,366.000 91.470,366.000 91.800 M366.800 94.376 C 366.800 94.829,366.980 95.200,367.200 95.200 C 367.420 95.200,367.600 94.941,367.600 94.624 C 367.600 94.307,367.420 93.936,367.200 93.800 C 366.980 93.664,366.800 93.923,366.800 94.376 M367.600 96.576 C 367.600 96.893,367.780 97.264,368.000 97.400 C 368.220 97.536,368.400 97.277,368.400 96.824 C 368.400 96.371,368.220 96.000,368.000 96.000 C 367.780 96.000,367.600 96.259,367.600 96.576 M31.300 99.256 C 30.700 99.861,30.625 103.600,31.213 103.600 C 31.842 103.600,32.060 102.687,31.924 100.625 C 31.825 99.124,31.701 98.852,31.300 99.256 M368.400 100.600 C 368.400 101.590,368.580 102.400,368.800 102.400 C 369.020 102.400,369.200 101.590,369.200 100.600 C 369.200 99.610,369.020 98.800,368.800 98.800 C 368.580 98.800,368.400 99.610,368.400 100.600 M30.800 111.333 C 30.800 112.103,30.997 112.799,31.238 112.879 C 31.478 112.959,31.830 113.739,32.020 114.613 C 32.209 115.486,32.484 116.740,32.630 117.400 C 34.021 123.670,40.360 132.305,47.000 136.974 C 48.540 138.057,51.510 140.140,53.600 141.602 C 56.999 143.980,60.615 146.510,73.600 155.600 C 75.690 157.063,79.740 159.902,82.600 161.909 C 85.460 163.916,89.960 167.042,92.600 168.855 C 95.240 170.669,97.490 172.264,97.600 172.399 C 98.148 173.076,106.437 178.496,106.630 178.304 C 106.752 178.181,106.121 177.669,105.226 177.167 C 104.332 176.664,103.600 176.106,103.600 175.926 C 103.600 175.747,103.422 175.600,103.205 175.600 C 102.987 175.600,102.492 175.335,102.105 175.012 C 101.717 174.688,99.330 172.991,96.800 171.240 C 94.270 169.489,92.020 167.908,91.800 167.726 C 91.580 167.543,89.690 166.235,87.600 164.818 C 85.510 163.401,83.740 162.098,83.667 161.921 C 83.593 161.745,83.293 161.600,83.000 161.600 C 82.707 161.600,82.407 161.455,82.333 161.279 C 82.260 161.102,80.490 159.797,78.401 158.379 C 76.311 156.960,74.331 155.576,74.001 155.303 C 73.370 154.781,68.645 151.476,60.600 145.929 C 57.960 144.108,55.530 142.397,55.200 142.125 C 54.870 141.853,52.440 140.145,49.800 138.327 C 39.150 130.997,34.041 123.585,32.226 112.832 C 31.748 109.999,30.800 109.003,30.800 111.333 M368.169 112.183 C 368.033 112.723,368.015 113.398,368.129 113.683 C 368.262 114.012,368.348 113.946,368.368 113.500 C 368.386 113.115,368.580 112.800,368.800 112.800 C 369.020 112.800,369.200 112.440,369.200 112.000 C 369.200 110.873,368.465 111.003,368.169 112.183 M367.429 115.829 C 367.281 116.415,367.238 116.972,367.332 117.066 C 367.427 117.160,367.624 116.758,367.771 116.171 C 367.919 115.585,367.962 115.028,367.868 114.934 C 367.773 114.840,367.576 115.242,367.429 115.829 M363.800 124.800 C 363.459 125.460,363.269 126.000,363.379 126.000 C 363.489 126.000,363.859 125.460,364.200 124.800 C 364.541 124.140,364.731 123.600,364.621 123.600 C 364.511 123.600,364.141 124.140,363.800 124.800 M361.863 127.976 C 359.997 130.796,355.463 134.926,350.279 138.530 C 347.485 140.471,345.200 142.140,345.200 142.240 C 345.200 142.563,352.148 137.759,355.283 135.267 C 358.113 133.018,361.812 129.047,362.806 127.189 C 363.524 125.848,362.961 126.318,361.863 127.976 M339.800 145.850 C 338.040 147.070,336.330 148.351,336.000 148.696 C 335.356 149.370,341.807 145.037,342.786 144.138 C 343.896 143.119,342.991 143.637,339.800 145.850 M330.400 152.441 C 325.719 155.750,325.397 156.249,329.895 153.225 C 332.984 151.147,334.516 149.929,333.924 150.019 C 333.856 150.029,332.270 151.119,330.400 152.441 M320.600 159.285 C 319.060 160.356,317.530 161.510,317.200 161.849 C 316.870 162.189,318.130 161.430,320.000 160.164 C 324.048 157.424,323.773 157.631,323.567 157.469 C 323.475 157.396,322.140 158.214,320.600 159.285 M310.400 166.442 C 307.264 168.732,306.958 169.208,309.875 167.258 C 311.237 166.348,312.462 165.423,312.599 165.202 C 312.974 164.594,312.782 164.703,310.400 166.442 M300.717 173.132 C 298.582 174.599,296.827 175.922,296.817 176.072 C 296.796 176.403,304.270 171.335,304.607 170.788 C 304.959 170.219,304.938 170.231,300.717 173.132 M294.811 177.420 C 294.047 177.959,293.597 178.399,293.811 178.398 C 294.025 178.397,294.740 177.953,295.400 177.412 C 296.941 176.149,296.605 176.153,294.811 177.420 " stroke="none" fill="#8c7257" fill-rule="evenodd"></path></g></svg>