<svg id="svg" version="1.1" xmlns="http://www.w3.org/2000/svg" xmlns:xlink="http://www.w3.org/1999/xlink" width="400" height="400" viewBox="0, 0, 400,400"><g id="svgg"><path id="path0" d="M99.800 69.071 C 83.218 72.757,75.400 81.577,75.400 96.600 C 75.400 117.743,96.761 130.602,117.859 122.162 C 122.797 120.186,131.200 113.489,131.200 111.528 C 131.200 111.306,131.539 110.646,131.953 110.062 C 135.873 104.531,136.239 92.518,132.719 84.880 C 127.482 73.516,112.395 66.271,99.800 69.071 M253.800 143.364 C 239.579 145.454,227.783 152.235,219.600 163.024 C 218.610 164.329,217.485 165.747,217.100 166.174 C 216.715 166.601,216.400 167.110,216.400 167.304 C 216.400 167.498,216.129 167.928,215.799 168.258 C 214.862 169.195,214.812 168.685,214.702 157.200 L 214.600 146.600 188.200 146.600 L 161.800 146.600 161.699 227.100 L 161.598 307.600 188.199 307.600 L 214.800 307.600 214.801 261.500 C 214.802 206.250,214.719 207.425,219.174 199.883 C 225.168 189.735,232.718 185.400,244.400 185.400 C 257.273 185.400,264.663 190.685,269.010 203.000 C 271.320 209.544,271.330 209.787,271.479 260.000 C 271.555 285.630,271.613 306.825,271.608 307.100 C 271.602 307.495,277.182 307.600,298.200 307.600 L 324.800 307.600 324.800 257.098 C 324.800 215.259,324.699 205.735,324.213 201.579 C 323.005 191.252,320.978 183.584,317.369 175.695 C 316.836 174.530,316.400 173.505,316.400 173.418 C 316.400 172.008,309.651 162.791,305.829 158.981 C 293.315 146.508,273.295 140.498,253.800 143.364 M78.238 147.046 C 78.101 147.401,78.096 183.446,78.225 227.146 C 78.355 270.846,78.447 306.825,78.430 307.100 C 78.406 307.495,83.971 307.600,105.000 307.600 C 126.019 307.600,131.598 307.495,131.589 307.100 C 131.583 306.825,131.700 270.830,131.848 227.112 C 132.066 163.121,132.019 147.505,131.610 147.012 C 130.814 146.053,78.606 146.086,78.238 147.046 " stroke="none" fill="#fafbfb" fill-rule="evenodd"></path><path id="path1" d="M354.800 18.800 C 356.256 19.266,357.688 19.266,357.400 18.800 C 357.264 18.580,356.398 18.418,355.476 18.440 C 354.045 18.474,353.946 18.526,354.800 18.800 M359.000 19.688 C 359.440 19.943,359.847 20.114,359.904 20.068 C 359.961 20.022,360.538 20.257,361.184 20.592 C 362.670 21.360,363.033 21.363,362.400 20.600 C 362.126 20.270,361.564 20.000,361.151 20.000 C 360.738 20.000,360.400 19.820,360.400 19.600 C 360.400 19.380,359.905 19.205,359.300 19.212 C 358.271 19.224,358.252 19.254,359.000 19.688 M363.371 21.637 C 363.371 22.024,363.498 22.263,363.652 22.168 C 364.125 21.875,366.063 22.774,365.818 23.172 C 365.691 23.377,365.798 23.675,366.055 23.834 C 366.337 24.008,366.417 23.951,366.255 23.689 C 366.108 23.451,366.171 23.141,366.397 23.002 C 366.998 22.630,365.767 21.536,364.909 21.680 C 364.519 21.746,364.235 21.605,364.278 21.367 C 364.321 21.128,364.134 20.933,363.863 20.933 C 363.593 20.933,363.371 21.250,363.371 21.637 M366.806 23.900 C 366.811 24.455,366.885 24.486,367.162 24.047 C 367.436 23.615,367.573 23.685,367.790 24.369 C 368.084 25.294,368.828 25.317,369.130 24.411 C 369.248 24.055,369.095 23.955,368.675 24.116 C 368.233 24.286,368.108 24.184,368.263 23.780 C 368.414 23.386,368.214 23.200,367.643 23.200 C 367.104 23.200,366.802 23.453,366.806 23.900 M369.094 25.039 C 368.753 25.381,369.219 26.435,369.606 26.196 C 370.184 25.839,371.155 26.452,370.932 27.033 C 370.736 27.545,371.468 27.822,372.530 27.637 C 372.711 27.606,372.750 27.757,372.617 27.973 C 372.484 28.188,372.110 28.264,371.787 28.140 C 370.817 27.768,371.110 28.287,372.900 30.116 C 375.925 33.209,375.932 33.285,373.414 35.803 C 372.206 37.011,371.031 38.000,370.802 38.000 C 370.574 38.000,369.037 39.350,367.387 41.000 C 365.737 42.650,364.075 44.008,363.694 44.018 C 363.312 44.029,362.370 44.752,361.600 45.626 C 358.502 49.142,357.242 50.400,356.816 50.400 C 356.570 50.400,354.763 52.020,352.800 54.000 C 350.837 55.980,349.038 57.600,348.802 57.600 C 348.566 57.600,347.752 58.185,346.994 58.900 C 346.235 59.615,345.206 60.579,344.707 61.043 C 344.208 61.507,343.535 62.272,343.212 62.743 C 342.888 63.214,342.385 63.600,342.095 63.600 C 341.804 63.600,340.141 65.040,338.400 66.800 C 336.659 68.560,335.039 70.000,334.800 70.000 C 334.561 70.000,332.941 71.440,331.200 73.200 C 329.459 74.960,327.929 76.400,327.800 76.400 C 327.461 76.400,326.667 77.092,323.783 79.900 C 322.370 81.275,321.024 82.400,320.790 82.400 C 320.557 82.400,318.941 83.840,317.200 85.600 C 315.459 87.360,313.832 88.800,313.586 88.800 C 313.339 88.800,312.433 89.565,311.573 90.500 C 308.369 93.980,307.459 94.800,306.800 94.800 C 306.561 94.800,304.941 96.240,303.200 98.000 C 301.459 99.760,299.838 101.200,299.598 101.200 C 299.066 101.200,293.600 106.686,293.600 107.220 C 293.600 107.429,293.325 107.600,292.989 107.600 C 292.403 107.600,291.792 108.107,287.807 111.900 C 286.825 112.835,285.829 113.600,285.593 113.600 C 285.358 113.600,283.741 115.040,282.000 116.800 C 280.259 118.560,278.557 120.000,278.217 120.000 C 277.878 120.000,277.600 120.171,277.600 120.380 C 277.600 120.914,272.134 126.400,271.602 126.400 C 271.052 126.400,270.549 126.817,267.383 129.900 C 265.970 131.275,264.620 132.400,264.381 132.400 C 263.966 132.400,261.784 134.578,258.800 137.971 C 258.030 138.847,257.169 139.571,256.887 139.582 C 256.392 139.599,253.600 142.152,253.600 142.587 C 253.600 142.704,254.140 142.800,254.800 142.800 C 255.460 142.800,256.000 142.620,256.000 142.400 C 256.000 141.858,270.265 141.858,270.600 142.400 C 270.736 142.620,272.097 142.800,273.624 142.800 C 275.151 142.800,276.400 142.955,276.400 143.144 C 276.400 143.334,277.445 143.584,278.721 143.699 C 283.325 144.117,297.274 149.885,297.933 151.644 C 298.007 151.840,298.277 152.003,298.533 152.007 C 299.437 152.021,310.400 162.138,310.400 162.958 C 310.400 163.189,311.338 164.403,312.300 165.416 C 312.575 165.706,312.800 166.136,312.800 166.371 C 312.800 166.607,312.980 166.800,313.200 166.800 C 313.420 166.800,313.600 167.070,313.600 167.400 C 313.600 167.730,313.736 168.000,313.902 168.000 C 314.069 168.000,314.459 168.585,314.770 169.300 C 315.081 170.015,315.444 170.690,315.576 170.800 C 315.829 171.011,317.750 174.923,319.135 178.046 C 321.254 182.826,323.213 190.365,324.474 198.600 C 324.758 200.447,324.955 219.533,325.056 254.703 L 325.209 308.006 298.104 307.903 L 271.000 307.800 270.743 260.600 C 270.495 215.111,270.358 209.047,269.565 208.220 C 269.364 208.011,269.200 207.394,269.200 206.848 C 269.200 204.677,266.927 199.042,264.713 195.724 C 262.044 191.724,255.951 187.200,253.234 187.200 C 252.801 187.200,252.350 187.043,252.232 186.852 C 251.483 185.640,239.439 185.587,236.600 186.782 C 236.160 186.968,235.170 187.339,234.400 187.607 C 231.793 188.514,229.739 189.622,227.556 191.300 C 226.769 191.905,225.995 192.400,225.836 192.400 C 225.483 192.400,223.851 194.315,222.502 196.314 C 221.950 197.131,221.386 197.890,221.249 198.000 C 220.862 198.311,219.576 200.521,219.329 201.300 C 219.207 201.685,218.948 202.000,218.753 202.000 C 218.559 202.000,218.400 202.349,218.400 202.776 C 218.400 203.203,218.220 203.664,218.000 203.800 C 217.780 203.936,217.600 204.397,217.600 204.824 C 217.600 205.251,217.420 205.600,217.200 205.600 C 216.980 205.600,216.800 206.219,216.800 206.976 C 216.800 207.733,216.620 208.464,216.400 208.600 C 216.140 208.761,216.000 218.382,216.000 236.158 C 216.000 251.179,215.881 273.488,215.735 285.734 L 215.469 308.000 188.135 308.000 L 160.800 308.000 160.800 267.067 C 160.800 244.553,160.691 226.024,160.558 225.891 C 160.424 225.758,159.876 226.088,159.339 226.624 C 158.803 227.161,158.094 227.600,157.765 227.600 C 157.435 227.600,155.741 229.040,154.000 230.800 C 152.259 232.560,150.639 234.000,150.400 234.000 C 150.161 234.000,148.541 235.440,146.800 237.200 C 145.059 238.960,143.532 240.400,143.407 240.400 C 143.281 240.400,142.375 241.165,141.393 242.100 C 137.527 245.780,136.807 246.400,136.401 246.400 C 136.169 246.400,135.174 247.205,134.189 248.189 L 132.400 249.979 132.400 278.943 L 132.400 307.907 131.500 308.148 C 129.641 308.646,78.188 308.428,77.680 307.920 C 77.372 307.612,77.200 306.036,77.200 303.520 C 77.200 298.947,77.303 299.030,74.800 301.600 C 73.729 302.700,72.653 303.600,72.409 303.600 C 72.165 303.600,70.541 305.040,68.800 306.800 C 67.059 308.560,65.360 310.000,65.026 310.000 C 64.420 310.000,60.731 313.502,59.612 315.139 C 59.288 315.613,58.785 316.000,58.495 316.000 C 58.204 316.000,56.541 317.440,54.800 319.200 C 53.059 320.960,51.443 322.400,51.210 322.400 C 50.976 322.400,49.630 323.525,48.217 324.900 C 45.333 327.708,44.539 328.400,44.200 328.400 C 44.071 328.400,42.541 329.840,40.800 331.600 C 39.059 333.360,37.439 334.800,37.200 334.800 C 36.961 334.800,35.341 336.240,33.600 338.000 C 31.859 339.760,30.243 341.200,30.009 341.200 C 29.775 341.200,28.247 342.550,26.613 344.200 C 24.979 345.850,23.438 347.200,23.190 347.200 C 22.941 347.200,22.046 347.920,21.200 348.800 C 19.462 350.609,19.200 350.718,19.200 349.633 C 19.200 349.212,19.033 348.807,18.830 348.733 C 18.626 348.660,18.295 344.550,18.093 339.600 L 17.725 330.600 17.663 343.476 C 17.623 351.698,17.745 356.442,18.000 356.600 C 18.220 356.736,18.400 357.467,18.400 358.224 C 18.400 358.981,18.580 359.600,18.800 359.600 C 19.020 359.600,19.200 359.949,19.200 360.376 C 19.200 360.803,19.380 361.264,19.600 361.400 C 19.820 361.536,20.000 362.087,20.000 362.624 C 20.000 363.161,20.180 363.600,20.400 363.600 C 20.620 363.600,20.800 363.920,20.800 364.312 C 20.800 364.703,21.160 365.283,21.600 365.600 C 22.040 365.917,22.400 366.457,22.400 366.800 C 22.400 367.143,22.760 367.683,23.200 368.000 C 23.640 368.317,24.000 368.805,24.000 369.085 C 24.000 369.364,24.360 369.818,24.800 370.093 C 25.240 370.368,25.600 370.749,25.600 370.940 C 25.600 371.525,29.343 374.798,30.300 375.050 C 30.795 375.180,31.200 375.447,31.200 375.643 C 31.200 375.840,31.388 376.000,31.617 376.000 C 31.846 376.000,32.420 376.360,32.892 376.800 C 33.364 377.240,33.987 377.600,34.275 377.600 C 34.564 377.600,34.800 377.780,34.800 378.000 C 34.800 378.220,35.239 378.400,35.776 378.400 C 36.313 378.400,36.864 378.580,37.000 378.800 C 37.136 379.020,37.597 379.200,38.024 379.200 C 38.451 379.200,38.800 379.380,38.800 379.600 C 38.800 379.820,39.509 380.000,40.376 380.000 C 41.243 380.000,42.064 380.180,42.200 380.400 C 42.543 380.955,357.057 380.955,357.400 380.400 C 357.536 380.180,358.267 380.000,359.024 380.000 C 359.781 380.000,360.400 379.820,360.400 379.600 C 360.400 379.380,360.749 379.200,361.176 379.200 C 361.603 379.200,362.064 379.020,362.200 378.800 C 362.336 378.580,362.887 378.400,363.424 378.400 C 363.961 378.400,364.400 378.220,364.400 378.000 C 364.400 377.780,364.720 377.600,365.112 377.600 C 365.503 377.600,366.083 377.240,366.400 376.800 C 366.717 376.360,367.282 376.000,367.655 376.000 C 368.028 376.000,368.393 375.865,368.467 375.700 C 368.540 375.535,369.381 374.869,370.336 374.221 C 372.223 372.939,375.200 369.763,375.200 369.032 C 375.200 368.782,375.560 368.317,376.000 368.000 C 376.440 367.683,376.800 367.143,376.800 366.800 C 376.800 366.457,377.160 365.917,377.600 365.600 C 378.040 365.283,378.400 364.703,378.400 364.312 C 378.400 363.920,378.580 363.600,378.800 363.600 C 379.020 363.600,379.200 363.161,379.200 362.624 C 379.200 362.087,379.380 361.536,379.600 361.400 C 379.820 361.264,380.000 360.803,380.000 360.376 C 380.000 359.949,380.180 359.600,380.400 359.600 C 380.620 359.600,380.800 358.981,380.800 358.224 C 380.800 357.467,380.980 356.736,381.200 356.600 C 381.739 356.267,381.756 42.921,381.218 42.733 C 381.007 42.660,380.790 41.925,380.736 41.100 C 380.681 40.275,380.493 39.600,380.318 39.600 C 380.143 39.600,380.000 39.251,380.000 38.824 C 380.000 38.397,379.820 37.936,379.600 37.800 C 379.380 37.664,379.200 37.113,379.200 36.576 C 379.200 36.039,379.020 35.600,378.800 35.600 C 378.580 35.600,378.400 35.280,378.400 34.888 C 378.400 34.497,378.040 33.917,377.600 33.600 C 377.160 33.283,376.800 32.769,376.800 32.459 C 376.800 31.824,375.313 30.403,374.639 30.394 C 374.393 30.390,374.436 30.238,374.735 30.049 C 375.135 29.795,374.652 29.090,372.823 27.255 C 370.538 24.963,369.680 24.453,369.094 25.039 " stroke="none" fill="#0f81bf" fill-rule="evenodd"></path><path id="path2" d="M43.000 18.800 C 42.864 19.020,42.144 19.200,41.400 19.200 C 40.656 19.200,39.936 19.380,39.800 19.600 C 39.664 19.820,39.128 20.000,38.610 20.000 C 38.091 20.000,37.607 20.163,37.533 20.362 C 37.460 20.561,36.950 20.786,36.400 20.862 C 35.850 20.938,35.079 21.270,34.687 21.600 C 34.295 21.930,33.832 22.200,33.658 22.200 C 33.485 22.200,33.036 22.507,32.660 22.883 C 32.284 23.259,31.712 23.464,31.388 23.340 C 31.045 23.208,30.800 23.345,30.800 23.668 C 30.800 24.217,29.448 25.600,28.912 25.600 C 28.759 25.600,27.731 26.545,26.628 27.700 C 25.525 28.855,24.469 29.751,24.282 29.690 C 24.094 29.630,24.047 29.753,24.178 29.964 C 24.308 30.176,23.995 30.768,23.482 31.281 C 22.969 31.795,22.292 32.796,21.977 33.507 C 21.662 34.218,21.288 34.800,21.146 34.800 C 20.926 34.800,20.326 36.584,20.339 37.200 C 20.341 37.310,20.090 37.679,19.781 38.021 C 19.472 38.362,19.152 38.992,19.070 39.421 C 18.987 39.849,18.818 40.470,18.693 40.800 C 18.567 41.130,18.326 41.940,18.156 42.600 C 17.986 43.260,17.827 62.700,17.803 85.800 C 17.779 108.900,17.866 125.190,17.997 122.000 L 18.234 116.200 18.317 121.700 C 18.363 124.725,18.499 127.200,18.619 127.200 C 18.740 127.200,20.081 125.940,21.600 124.400 C 23.119 122.860,24.595 121.595,24.881 121.588 C 25.166 121.581,25.850 121.032,26.400 120.367 C 28.392 117.958,31.158 115.200,31.581 115.200 C 31.820 115.200,33.170 114.075,34.583 112.700 C 37.752 109.614,38.252 109.200,38.805 109.200 C 39.268 109.200,43.383 105.111,44.388 103.653 C 44.712 103.184,45.215 102.800,45.505 102.800 C 45.796 102.800,47.459 101.360,49.200 99.600 C 50.941 97.840,52.559 96.400,52.794 96.400 C 53.207 96.400,53.921 95.786,57.793 92.100 C 58.775 91.165,59.681 90.400,59.807 90.400 C 59.932 90.400,61.459 88.960,63.200 87.200 C 64.941 85.440,66.561 84.000,66.800 84.000 C 67.039 84.000,68.659 82.560,70.400 80.800 C 72.141 79.040,73.837 77.600,74.170 77.600 C 74.761 77.600,75.998 76.434,78.800 73.235 C 79.570 72.356,80.433 71.629,80.717 71.618 C 81.002 71.608,82.659 70.160,84.400 68.400 C 86.141 66.640,87.759 65.200,87.996 65.200 C 88.233 65.200,89.950 63.670,91.811 61.800 C 93.673 59.930,95.385 58.400,95.615 58.400 C 95.846 58.400,97.459 56.960,99.200 55.200 C 100.941 53.440,102.561 52.000,102.800 52.000 C 103.039 52.000,104.659 50.560,106.400 48.800 C 108.141 47.040,109.670 45.600,109.797 45.600 C 110.063 45.600,111.125 44.660,114.200 41.700 C 115.401 40.545,116.574 39.600,116.808 39.600 C 117.043 39.600,118.659 38.160,120.400 36.400 C 122.141 34.640,123.798 33.192,124.083 33.182 C 124.367 33.171,125.230 32.444,126.000 31.565 C 128.802 28.366,130.039 27.200,130.630 27.200 C 130.963 27.200,132.659 25.760,134.400 24.000 C 136.141 22.240,137.766 20.800,138.011 20.800 C 138.474 20.800,139.600 19.828,139.600 19.429 C 139.600 19.303,132.625 19.158,124.100 19.107 L 108.600 19.014 124.600 18.800 C 134.104 18.673,120.838 18.548,91.924 18.493 C 59.803 18.432,43.163 18.536,43.000 18.800 M97.600 68.800 C 97.270 69.013,96.415 69.191,95.700 69.194 C 94.985 69.197,94.400 69.380,94.400 69.600 C 94.400 69.820,93.961 70.000,93.424 70.000 C 92.887 70.000,92.336 70.180,92.200 70.400 C 92.064 70.620,91.603 70.800,91.176 70.800 C 90.749 70.800,90.400 70.980,90.400 71.200 C 90.400 71.420,90.040 71.600,89.600 71.600 C 89.160 71.600,88.800 71.780,88.800 72.000 C 88.800 72.220,88.440 72.400,88.000 72.400 C 87.560 72.400,87.200 72.541,87.200 72.714 C 87.200 72.886,86.659 73.347,85.999 73.737 C 83.237 75.368,77.200 82.419,77.200 84.013 C 77.200 84.232,77.020 84.768,76.800 85.205 C 76.580 85.642,76.220 86.358,76.000 86.795 C 75.780 87.232,75.600 88.042,75.600 88.595 C 75.600 89.148,75.420 89.600,75.200 89.600 C 74.949 89.600,74.800 92.125,74.800 96.376 C 74.800 100.463,74.959 103.251,75.200 103.400 C 75.420 103.536,75.600 104.177,75.600 104.824 C 75.600 105.471,75.780 106.000,76.000 106.000 C 76.220 106.000,76.400 106.450,76.400 107.000 C 76.400 107.550,76.580 108.000,76.800 108.000 C 77.321 108.000,77.338 108.097,76.322 105.363 C 74.260 99.818,75.094 89.835,78.136 83.645 C 87.158 65.287,118.815 63.536,130.351 80.758 C 136.131 89.387,136.881 103.109,131.953 110.062 C 131.539 110.646,131.200 111.305,131.200 111.526 C 131.200 111.748,129.769 113.425,128.021 115.252 C 124.489 118.945,123.982 119.844,127.091 116.905 C 136.028 108.454,138.282 95.692,132.901 84.006 C 131.327 80.589,124.803 73.200,123.359 73.200 C 123.052 73.200,122.800 73.048,122.800 72.863 C 122.800 72.677,121.945 72.118,120.900 71.619 C 119.855 71.120,118.687 70.552,118.305 70.356 C 117.923 70.160,117.259 70.000,116.829 70.000 C 116.399 70.000,115.936 69.820,115.800 69.600 C 115.664 69.380,115.034 69.200,114.400 69.200 C 113.766 69.200,113.136 69.020,113.000 68.800 C 112.677 68.278,98.408 68.278,97.600 68.800 M78.000 110.533 C 78.000 110.900,78.158 111.200,78.351 111.200 C 78.545 111.200,78.927 111.740,79.200 112.400 C 79.473 113.060,79.810 113.601,79.949 113.603 C 80.087 113.604,80.639 114.250,81.175 115.037 C 82.912 117.587,90.679 122.800,92.742 122.800 C 93.091 122.800,92.123 122.195,90.589 121.456 C 85.777 119.136,82.651 116.493,79.786 112.322 C 77.989 109.707,78.000 109.718,78.000 110.533 M122.476 119.883 C 121.528 120.435,120.836 120.970,120.939 121.072 C 121.140 121.273,124.400 119.317,124.400 118.995 C 124.400 118.750,124.514 118.697,122.476 119.883 M118.200 122.022 C 117.320 122.438,116.887 122.784,117.239 122.790 C 117.895 122.800,120.400 121.676,120.400 121.371 C 120.400 121.077,119.855 121.239,118.200 122.022 M93.600 123.129 C 93.600 123.548,94.060 123.646,100.714 124.636 C 104.159 125.149,105.722 125.213,107.314 124.906 C 109.279 124.528,109.144 124.502,105.000 124.446 C 101.202 124.394,96.955 123.811,94.344 122.982 C 93.935 122.852,93.600 122.919,93.600 123.129 M115.000 123.200 C 114.229 123.531,114.231 123.545,115.076 123.572 C 115.558 123.587,116.064 123.420,116.200 123.200 C 116.492 122.727,116.101 122.727,115.000 123.200 M111.200 124.000 L 109.800 124.295 111.400 124.341 C 112.280 124.367,113.270 124.213,113.600 124.000 C 114.324 123.532,113.423 123.532,111.200 124.000 M261.900 142.689 C 262.615 142.778,263.785 142.778,264.500 142.689 C 265.215 142.601,264.630 142.528,263.200 142.528 C 261.770 142.528,261.185 142.601,261.900 142.689 M255.105 143.083 C 255.602 143.179,256.322 143.175,256.705 143.075 C 257.087 142.975,256.680 142.896,255.800 142.901 C 254.920 142.905,254.607 142.987,255.105 143.083 M270.305 143.083 C 270.802 143.179,271.522 143.175,271.905 143.075 C 272.287 142.975,271.880 142.896,271.000 142.901 C 270.120 142.905,269.807 142.987,270.305 143.083 M78.032 146.700 C 78.050 147.118,78.144 147.199,78.265 146.900 C 78.423 146.507,84.110 146.400,104.811 146.400 L 131.155 146.400 131.777 147.289 C 132.480 148.292,132.617 147.953,131.986 146.774 C 131.370 145.623,77.980 145.550,78.032 146.700 M161.320 146.568 C 161.144 146.881,161.087 149.356,161.194 152.068 L 161.388 157.000 161.594 151.800 L 161.800 146.600 188.200 146.600 L 214.600 146.600 214.707 157.387 C 214.765 163.319,214.945 168.306,215.107 168.467 C 215.598 168.960,215.231 147.120,214.738 146.526 C 214.063 145.712,161.778 145.754,161.320 146.568 M78.194 255.200 C 78.194 283.470,78.242 295.035,78.300 280.900 C 78.358 266.765,78.358 243.635,78.300 229.500 C 78.242 215.365,78.194 226.930,78.194 255.200 M324.970 220.600 C 324.971 225.440,325.029 227.365,325.099 224.878 C 325.169 222.391,325.169 218.431,325.098 216.078 C 325.028 213.725,324.970 215.760,324.970 220.600 M214.993 260.600 C 214.993 286.340,215.041 296.811,215.100 283.869 C 215.159 270.927,215.158 249.867,215.100 237.069 C 215.041 224.271,214.993 234.860,214.993 260.600 M271.393 262.800 C 271.393 286.890,271.441 296.745,271.500 284.700 C 271.559 272.655,271.559 252.945,271.500 240.900 C 271.441 228.855,271.393 238.710,271.393 262.800 M131.791 273.400 C 131.791 291.440,131.840 298.762,131.900 289.670 C 131.960 280.579,131.960 265.819,131.900 256.870 C 131.840 247.922,131.791 255.360,131.791 273.400 M161.346 303.400 C 161.347 305.600,161.414 306.449,161.495 305.287 C 161.576 304.124,161.576 302.324,161.493 301.287 C 161.411 300.249,161.345 301.200,161.346 303.400 M78.103 307.200 C 78.246 307.726,81.560 307.801,104.833 307.804 L 131.400 307.809 105.022 307.701 C 84.557 307.618,78.565 307.483,78.291 307.097 C 78.032 306.732,77.982 306.759,78.103 307.200 M175.129 307.900 C 182.460 307.961,194.340 307.961,201.529 307.900 C 208.718 307.839,202.720 307.789,188.200 307.789 C 173.680 307.789,167.798 307.839,175.129 307.900 M281.700 307.900 C 287.145 307.963,296.055 307.963,301.500 307.900 C 306.945 307.837,302.490 307.785,291.600 307.785 C 280.710 307.785,276.255 307.837,281.700 307.900 " stroke="none" fill="#249ee4" fill-rule="evenodd"></path><path id="path3" d="M213.200 18.799 C 206.639 19.014,206.921 19.034,217.700 19.114 C 224.025 19.161,229.200 19.298,229.200 19.418 C 229.200 19.538,228.795 20.053,228.300 20.563 C 227.805 21.073,227.135 21.874,226.812 22.345 C 226.488 22.815,225.989 23.200,225.703 23.200 C 225.417 23.200,224.201 24.145,223.000 25.300 C 219.592 28.580,218.860 29.200,218.397 29.200 C 218.160 29.200,216.541 30.640,214.800 32.400 C 213.059 34.160,211.357 35.600,211.017 35.600 C 210.678 35.600,210.400 35.771,210.400 35.980 C 210.400 36.513,204.935 42.000,204.405 42.000 C 203.924 42.000,203.180 42.638,199.398 46.300 C 197.977 47.675,196.586 48.805,196.307 48.812 C 196.028 48.819,195.350 49.368,194.800 50.033 C 192.808 52.442,190.042 55.200,189.619 55.200 C 189.380 55.200,188.030 56.325,186.617 57.700 C 183.448 60.786,182.948 61.200,182.395 61.200 C 181.932 61.200,177.817 65.289,176.812 66.747 C 176.488 67.216,175.985 67.600,175.695 67.600 C 175.404 67.600,173.741 69.040,172.000 70.800 C 170.259 72.560,168.642 74.000,168.407 74.000 C 168.171 74.000,167.175 74.765,166.193 75.700 C 162.208 79.493,161.597 80.000,161.011 80.000 C 160.675 80.000,160.400 80.171,160.400 80.380 C 160.400 80.914,154.934 86.400,154.402 86.400 C 154.162 86.400,152.541 87.840,150.800 89.600 C 149.059 91.360,147.439 92.800,147.200 92.800 C 146.541 92.800,145.631 93.620,142.427 97.100 C 141.567 98.035,140.665 98.800,140.423 98.800 C 139.753 98.800,135.600 103.098,135.600 103.791 C 135.600 104.126,135.420 104.400,135.200 104.400 C 134.980 104.400,134.800 104.839,134.800 105.376 C 134.800 105.913,134.620 106.464,134.400 106.600 C 134.180 106.736,134.000 107.287,134.000 107.824 C 134.000 108.361,133.820 108.800,133.600 108.800 C 133.380 108.800,133.200 109.160,133.200 109.600 C 133.200 110.040,133.050 110.400,132.868 110.400 C 132.685 110.400,132.281 110.895,131.970 111.500 C 131.660 112.105,131.089 112.891,130.703 113.247 C 130.316 113.603,130.000 114.102,130.000 114.357 C 130.000 114.869,126.606 118.399,126.111 118.402 C 125.940 118.403,125.260 118.905,124.600 119.519 C 123.442 120.594,118.501 123.200,117.620 123.200 C 117.383 123.200,116.877 123.358,116.495 123.551 C 115.175 124.218,112.939 124.800,111.699 124.800 C 110.857 124.800,110.381 125.030,110.228 125.511 C 110.104 125.902,109.615 126.487,109.142 126.811 C 108.668 127.135,107.502 128.165,106.551 129.100 C 105.599 130.035,104.629 130.800,104.393 130.800 C 104.158 130.800,102.541 132.240,100.800 134.000 C 99.059 135.760,97.402 137.208,97.117 137.218 C 96.833 137.229,95.970 137.952,95.200 138.826 C 91.969 142.494,90.832 143.600,90.293 143.600 C 89.704 143.600,88.000 144.898,88.000 145.347 C 88.000 145.486,97.585 145.602,109.300 145.605 C 121.015 145.608,131.005 145.719,131.500 145.852 L 132.400 146.093 132.400 197.847 C 132.400 226.311,132.504 249.600,132.631 249.600 C 132.759 249.600,133.554 248.880,134.400 248.000 C 135.246 247.120,136.137 246.400,136.380 246.400 C 136.806 246.400,137.509 245.797,141.393 242.100 C 142.375 241.165,143.281 240.400,143.407 240.400 C 143.532 240.400,145.059 238.960,146.800 237.200 C 148.541 235.440,150.161 234.000,150.400 234.000 C 150.639 234.000,152.259 232.560,154.000 230.800 C 155.741 229.040,157.435 227.600,157.765 227.600 C 158.094 227.600,158.824 227.140,159.386 226.578 C 160.800 225.164,160.779 225.002,160.935 238.400 C 161.011 244.890,161.030 226.755,160.977 198.100 L 160.880 146.000 188.026 146.000 C 213.493 146.000,215.191 146.043,215.486 146.700 C 215.659 147.085,215.710 151.930,215.600 157.468 C 215.490 163.005,215.424 167.505,215.454 167.468 C 215.483 167.430,216.735 165.786,218.234 163.813 C 221.153 159.974,225.714 155.211,228.000 153.616 C 228.770 153.078,229.490 152.528,229.600 152.393 C 230.676 151.071,238.370 146.917,241.800 145.807 C 242.900 145.451,244.160 145.002,244.600 144.810 C 245.568 144.387,247.250 144.007,249.400 143.727 C 250.280 143.612,251.171 143.356,251.380 143.159 C 251.589 142.962,252.098 142.800,252.511 142.800 C 252.925 142.800,253.954 142.080,254.800 141.200 C 255.646 140.320,256.576 139.592,256.869 139.582 C 257.161 139.571,258.030 138.847,258.800 137.971 C 261.784 134.578,263.966 132.400,264.381 132.400 C 264.620 132.400,265.970 131.275,267.383 129.900 C 270.549 126.817,271.052 126.400,271.602 126.400 C 272.134 126.400,277.600 120.914,277.600 120.380 C 277.600 120.171,277.878 120.000,278.217 120.000 C 278.557 120.000,280.259 118.560,282.000 116.800 C 283.741 115.040,285.358 113.600,285.593 113.600 C 285.829 113.600,286.825 112.835,287.807 111.900 C 291.792 108.107,292.403 107.600,292.989 107.600 C 293.325 107.600,293.600 107.429,293.600 107.220 C 293.600 106.686,299.066 101.200,299.598 101.200 C 299.838 101.200,301.459 99.760,303.200 98.000 C 304.941 96.240,306.561 94.800,306.800 94.800 C 307.459 94.800,308.369 93.980,311.573 90.500 C 312.433 89.565,313.339 88.800,313.586 88.800 C 313.832 88.800,315.459 87.360,317.200 85.600 C 318.941 83.840,320.557 82.400,320.790 82.400 C 321.024 82.400,322.370 81.275,323.783 79.900 C 326.667 77.092,327.461 76.400,327.800 76.400 C 327.929 76.400,329.459 74.960,331.200 73.200 C 332.941 71.440,334.561 70.000,334.800 70.000 C 335.039 70.000,336.659 68.560,338.400 66.800 C 340.141 65.040,341.804 63.600,342.095 63.600 C 342.385 63.600,342.888 63.214,343.212 62.743 C 343.535 62.272,344.208 61.507,344.707 61.043 C 345.206 60.579,346.235 59.615,346.994 58.900 C 347.752 58.185,348.566 57.600,348.802 57.600 C 349.038 57.600,350.837 55.980,352.800 54.000 C 354.763 52.020,356.601 50.392,356.885 50.382 C 357.168 50.371,358.030 49.648,358.800 48.774 C 362.077 45.054,363.173 44.000,363.762 44.000 C 364.106 44.000,365.737 42.650,367.387 41.000 C 369.037 39.350,370.574 38.000,370.802 38.000 C 371.031 38.000,372.206 37.011,373.414 35.803 C 375.932 33.285,375.925 33.209,372.900 30.116 C 371.110 28.287,370.817 27.768,371.787 28.140 C 372.110 28.264,372.484 28.188,372.617 27.973 C 372.750 27.757,372.711 27.606,372.530 27.637 C 371.468 27.822,370.736 27.545,370.932 27.033 C 371.163 26.430,370.175 25.845,369.564 26.222 C 369.238 26.424,369.034 25.881,369.148 25.114 C 369.171 24.957,368.891 24.944,368.526 25.084 C 368.018 25.279,367.924 25.176,368.126 24.649 C 368.284 24.238,368.231 24.057,367.995 24.203 C 367.778 24.337,367.597 24.212,367.594 23.924 C 367.589 23.543,367.482 23.564,367.200 24.000 C 366.888 24.483,366.811 24.419,366.806 23.676 C 366.803 23.154,366.624 22.862,366.393 23.004 C 366.170 23.142,366.108 23.451,366.255 23.689 C 366.417 23.951,366.337 24.008,366.055 23.834 C 365.798 23.675,365.698 23.365,365.834 23.145 C 365.969 22.926,365.704 22.648,365.245 22.528 C 364.785 22.407,364.519 22.132,364.653 21.915 C 364.796 21.683,364.565 21.698,364.094 21.949 C 363.432 22.304,363.302 22.259,363.346 21.689 C 363.376 21.310,363.170 21.047,362.888 21.104 C 362.606 21.161,361.843 20.933,361.192 20.596 C 360.541 20.259,359.871 19.963,359.704 19.938 C 359.537 19.912,359.040 19.756,358.600 19.591 C 355.774 18.527,350.966 18.455,286.800 18.511 C 250.170 18.543,217.050 18.672,213.200 18.799 M256.000 142.400 C 256.000 142.906,256.817 142.906,257.600 142.400 C 258.068 142.098,257.957 142.011,257.100 142.006 C 256.495 142.003,256.000 142.180,256.000 142.400 M269.000 142.400 C 270.111 142.878,270.895 142.878,270.600 142.400 C 270.464 142.180,269.868 142.013,269.276 142.028 C 268.315 142.053,268.286 142.093,269.000 142.400 M279.600 143.982 C 279.930 144.205,280.545 144.391,280.967 144.394 C 281.990 144.402,281.671 144.173,280.200 143.844 C 279.324 143.648,279.162 143.685,279.600 143.982 M282.600 144.800 C 282.736 145.020,283.242 145.187,283.724 145.172 C 284.569 145.145,284.571 145.131,283.800 144.800 C 282.699 144.327,282.308 144.327,282.600 144.800 M291.633 148.149 C 292.045 148.517,294.400 149.600,294.400 149.421 C 294.400 149.190,292.182 148.000,291.753 148.000 C 291.596 148.000,291.542 148.067,291.633 148.149 M73.710 158.130 C 70.613 161.196,69.676 162.000,69.197 162.000 C 68.960 162.000,67.341 163.440,65.600 165.200 C 63.859 166.960,62.196 168.400,61.905 168.400 C 61.615 168.400,61.112 168.784,60.788 169.253 C 59.789 170.702,55.669 174.800,55.211 174.800 C 54.793 174.800,54.083 175.410,50.207 179.100 C 49.225 180.035,48.225 180.800,47.985 180.800 C 47.558 180.800,44.797 183.551,42.800 185.967 C 42.250 186.632,41.567 187.181,41.283 187.188 C 40.998 187.195,39.341 188.640,37.600 190.400 C 35.859 192.160,34.159 193.600,33.824 193.600 C 33.488 193.600,31.863 194.950,30.213 196.600 C 28.563 198.250,27.113 199.600,26.991 199.600 C 26.869 199.600,25.163 201.220,23.200 203.200 C 18.496 207.945,18.400 207.929,18.400 202.400 C 18.400 199.733,18.242 198.000,18.000 198.000 C 16.848 198.000,17.695 348.293,18.850 348.733 C 19.043 348.807,19.200 349.212,19.200 349.633 C 19.200 350.718,19.462 350.609,21.200 348.800 C 22.046 347.920,22.941 347.200,23.190 347.200 C 23.438 347.200,24.979 345.850,26.613 344.200 C 28.247 342.550,29.775 341.200,30.009 341.200 C 30.243 341.200,31.859 339.760,33.600 338.000 C 35.341 336.240,36.961 334.800,37.200 334.800 C 37.439 334.800,39.059 333.360,40.800 331.600 C 42.541 329.840,44.071 328.400,44.200 328.400 C 44.539 328.400,45.333 327.708,48.217 324.900 C 49.630 323.525,50.976 322.400,51.210 322.400 C 51.443 322.400,53.059 320.960,54.800 319.200 C 56.541 317.440,58.204 316.000,58.495 316.000 C 58.785 316.000,59.288 315.613,59.612 315.139 C 60.731 313.502,64.420 310.000,65.026 310.000 C 65.360 310.000,67.059 308.560,68.800 306.800 C 70.541 305.040,72.165 303.600,72.409 303.600 C 72.653 303.600,73.729 302.700,74.800 301.600 C 77.304 299.029,77.200 298.944,77.200 303.551 C 77.200 306.396,77.352 307.629,77.744 307.954 C 78.140 308.282,85.557 308.377,104.844 308.300 L 131.400 308.194 104.766 308.097 L 78.131 308.000 77.866 283.334 C 77.720 269.768,77.600 239.213,77.599 215.434 C 77.597 151.718,77.760 154.118,73.710 158.130 M239.400 186.000 C 238.293 186.282,238.277 186.309,239.200 186.347 C 239.750 186.369,240.470 186.213,240.800 186.000 C 241.481 185.560,241.129 185.560,239.400 186.000 M255.233 187.749 C 255.645 188.117,258.000 189.200,258.000 189.021 C 258.000 188.790,255.782 187.600,255.353 187.600 C 255.196 187.600,255.142 187.667,255.233 187.749 M222.084 196.299 C 220.888 198.132,221.134 198.365,222.367 196.567 C 222.888 195.805,223.244 195.118,223.158 195.039 C 223.071 194.961,222.588 195.528,222.084 196.299 M215.791 246.000 C 215.791 263.930,215.840 271.265,215.900 262.300 C 215.960 253.335,215.960 238.665,215.900 229.700 C 215.840 220.735,215.791 228.070,215.791 246.000 " stroke="none" fill="#1c93d5" fill-rule="evenodd"></path><path id="path4" d="M124.600 18.800 L 108.600 19.014 124.100 19.107 C 132.625 19.158,139.600 19.303,139.600 19.429 C 139.600 19.828,138.474 20.800,138.011 20.800 C 137.766 20.800,136.141 22.240,134.400 24.000 C 132.659 25.760,130.963 27.200,130.630 27.200 C 130.039 27.200,128.802 28.366,126.000 31.565 C 125.230 32.444,124.367 33.171,124.083 33.182 C 123.798 33.192,122.141 34.640,120.400 36.400 C 118.659 38.160,117.043 39.600,116.808 39.600 C 116.574 39.600,115.401 40.545,114.200 41.700 C 111.125 44.660,110.063 45.600,109.797 45.600 C 109.670 45.600,108.141 47.040,106.400 48.800 C 104.659 50.560,103.039 52.000,102.800 52.000 C 102.561 52.000,100.941 53.440,99.200 55.200 C 97.459 56.960,95.846 58.400,95.615 58.400 C 95.385 58.400,93.673 59.930,91.811 61.800 C 89.950 63.670,88.233 65.200,87.996 65.200 C 87.759 65.200,86.141 66.640,84.400 68.400 C 82.659 70.160,81.002 71.608,80.717 71.618 C 80.433 71.629,79.570 72.356,78.800 73.235 C 75.998 76.434,74.761 77.600,74.170 77.600 C 73.837 77.600,72.141 79.040,70.400 80.800 C 68.659 82.560,67.039 84.000,66.800 84.000 C 66.561 84.000,64.941 85.440,63.200 87.200 C 61.459 88.960,59.932 90.400,59.807 90.400 C 59.681 90.400,58.775 91.165,57.793 92.100 C 53.921 95.786,53.207 96.400,52.794 96.400 C 52.559 96.400,50.941 97.840,49.200 99.600 C 47.459 101.360,45.796 102.800,45.505 102.800 C 45.215 102.800,44.712 103.184,44.388 103.653 C 43.383 105.111,39.268 109.200,38.805 109.200 C 38.252 109.200,37.752 109.614,34.583 112.700 C 33.170 114.075,31.820 115.200,31.581 115.200 C 31.158 115.200,28.392 117.958,26.400 120.367 C 25.850 121.032,25.166 121.581,24.881 121.588 C 24.595 121.595,23.119 122.860,21.600 124.400 C 20.081 125.940,18.740 127.200,18.619 127.200 C 18.499 127.200,18.368 124.725,18.328 121.700 L 18.256 116.200 17.982 122.600 C 17.529 133.192,17.545 198.000,18.000 198.000 C 18.242 198.000,18.400 199.733,18.400 202.400 C 18.400 207.929,18.496 207.945,23.200 203.200 C 25.163 201.220,26.869 199.600,26.991 199.600 C 27.113 199.600,28.563 198.250,30.213 196.600 C 31.863 194.950,33.488 193.600,33.824 193.600 C 34.159 193.600,35.859 192.160,37.600 190.400 C 39.341 188.640,40.998 187.195,41.283 187.188 C 41.567 187.181,42.250 186.632,42.800 185.967 C 44.797 183.551,47.558 180.800,47.985 180.800 C 48.225 180.800,49.225 180.035,50.207 179.100 C 54.083 175.410,54.793 174.800,55.211 174.800 C 55.669 174.800,59.789 170.702,60.788 169.253 C 61.112 168.784,61.615 168.400,61.905 168.400 C 62.196 168.400,63.859 166.960,65.600 165.200 C 67.341 163.440,68.960 162.000,69.197 162.000 C 69.660 162.000,70.392 161.380,73.800 158.100 C 75.617 156.352,76.932 155.593,77.266 156.100 C 77.302 156.155,77.445 183.020,77.583 215.800 L 77.833 275.400 77.917 210.700 L 78.000 146.000 104.700 145.904 L 131.400 145.807 109.700 145.700 C 97.765 145.641,88.000 145.481,88.000 145.343 C 88.000 144.881,89.717 143.600,90.361 143.582 C 90.713 143.571,91.630 142.848,92.400 141.974 C 95.500 138.456,96.758 137.200,97.186 137.200 C 97.432 137.200,99.059 135.760,100.800 134.000 C 102.541 132.240,104.158 130.800,104.393 130.800 C 104.629 130.800,105.599 130.035,106.551 129.100 C 107.502 128.165,108.668 127.135,109.142 126.811 C 109.615 126.487,110.104 125.902,110.228 125.511 C 110.381 125.030,110.857 124.800,111.699 124.800 C 112.939 124.800,115.175 124.218,116.495 123.551 C 116.877 123.358,117.383 123.200,117.620 123.200 C 118.501 123.200,123.442 120.594,124.600 119.519 C 125.260 118.905,125.940 118.403,126.111 118.402 C 126.618 118.399,130.000 114.863,130.000 114.336 C 130.000 114.069,129.235 114.670,128.300 115.672 C 125.548 118.621,119.135 122.800,117.361 122.800 C 117.047 122.800,116.477 122.958,116.095 123.151 C 114.843 123.783,112.564 124.400,111.479 124.400 C 110.894 124.400,109.197 124.605,107.707 124.856 C 105.476 125.232,104.226 125.193,100.600 124.636 C 93.948 123.614,93.600 123.540,93.600 123.156 C 93.600 122.960,93.264 122.800,92.853 122.800 C 90.691 122.800,82.964 117.663,81.175 115.037 C 80.639 114.250,80.087 113.604,79.949 113.603 C 79.810 113.601,79.473 113.060,79.200 112.400 C 78.927 111.740,78.545 111.200,78.351 111.200 C 78.158 111.200,78.000 110.840,78.000 110.400 C 78.000 109.960,77.820 109.600,77.600 109.600 C 77.380 109.600,77.200 109.240,77.200 108.800 C 77.200 108.360,77.020 108.000,76.800 108.000 C 76.580 108.000,76.400 107.550,76.400 107.000 C 76.400 106.450,76.220 106.000,76.000 106.000 C 75.780 106.000,75.600 105.471,75.600 104.824 C 75.600 104.177,75.420 103.536,75.200 103.400 C 74.959 103.251,74.800 100.463,74.800 96.376 C 74.800 92.125,74.949 89.600,75.200 89.600 C 75.420 89.600,75.600 89.148,75.600 88.595 C 75.600 88.042,75.808 87.187,76.062 86.695 C 76.986 84.908,77.200 84.404,77.200 84.013 C 77.200 82.419,83.237 75.368,85.999 73.737 C 86.659 73.347,87.200 72.886,87.200 72.714 C 87.200 72.541,87.560 72.400,88.000 72.400 C 88.440 72.400,88.800 72.220,88.800 72.000 C 88.800 71.780,89.160 71.600,89.600 71.600 C 90.040 71.600,90.400 71.420,90.400 71.200 C 90.400 70.980,90.749 70.800,91.176 70.800 C 91.603 70.800,92.064 70.620,92.200 70.400 C 92.336 70.180,92.887 70.000,93.424 70.000 C 93.961 70.000,94.400 69.839,94.400 69.642 C 94.400 68.748,112.088 67.928,112.942 68.782 C 113.172 69.012,113.853 69.200,114.456 69.200 C 115.059 69.200,115.664 69.380,115.800 69.600 C 115.936 69.820,116.399 70.000,116.829 70.000 C 117.259 70.000,117.923 70.160,118.305 70.356 C 118.687 70.552,119.855 71.120,120.900 71.619 C 121.945 72.118,122.800 72.677,122.800 72.863 C 122.800 73.048,123.052 73.200,123.359 73.200 C 124.117 73.200,129.545 78.568,131.044 80.800 C 132.865 83.510,134.069 86.268,135.062 90.000 C 135.746 92.572,135.845 100.697,135.217 102.797 C 134.711 104.494,134.712 104.400,135.200 104.400 C 135.420 104.400,135.600 104.126,135.600 103.791 C 135.600 103.098,139.753 98.800,140.423 98.800 C 140.665 98.800,141.567 98.035,142.427 97.100 C 145.631 93.620,146.541 92.800,147.200 92.800 C 147.439 92.800,149.059 91.360,150.800 89.600 C 152.541 87.840,154.162 86.400,154.402 86.400 C 154.934 86.400,160.400 80.914,160.400 80.380 C 160.400 80.171,160.675 80.000,161.011 80.000 C 161.597 80.000,162.208 79.493,166.193 75.700 C 167.175 74.765,168.171 74.000,168.407 74.000 C 168.642 74.000,170.259 72.560,172.000 70.800 C 173.741 69.040,175.404 67.600,175.695 67.600 C 175.985 67.600,176.488 67.216,176.812 66.747 C 177.817 65.289,181.932 61.200,182.395 61.200 C 182.948 61.200,183.448 60.786,186.617 57.700 C 188.030 56.325,189.380 55.200,189.619 55.200 C 190.042 55.200,192.808 52.442,194.800 50.033 C 195.350 49.368,196.028 48.819,196.307 48.812 C 196.586 48.805,197.977 47.675,199.398 46.300 C 203.180 42.638,203.924 42.000,204.405 42.000 C 204.935 42.000,210.400 36.513,210.400 35.980 C 210.400 35.771,210.678 35.600,211.017 35.600 C 211.357 35.600,213.059 34.160,214.800 32.400 C 216.541 30.640,218.160 29.200,218.397 29.200 C 218.860 29.200,219.592 28.580,223.000 25.300 C 224.201 24.145,225.417 23.200,225.703 23.200 C 225.989 23.200,226.488 22.815,226.812 22.345 C 227.135 21.874,227.805 21.073,228.300 20.563 C 228.795 20.053,229.200 19.538,229.200 19.418 C 229.200 19.298,224.025 19.161,217.700 19.114 C 206.938 19.034,206.649 19.014,213.200 18.800 C 222.018 18.512,146.161 18.512,124.600 18.800 M133.479 107.757 C 133.315 108.174,133.275 108.609,133.391 108.724 C 133.755 109.089,134.076 108.491,133.924 107.731 C 133.783 107.035,133.762 107.036,133.479 107.757 M257.711 142.323 C 257.442 142.494,260.040 142.640,263.483 142.647 C 266.927 142.655,269.397 142.525,268.972 142.359 C 267.946 141.957,258.335 141.926,257.711 142.323 M251.384 143.226 C 251.205 143.515,251.612 143.562,252.661 143.372 C 254.703 143.003,254.855 142.800,253.090 142.800 C 252.297 142.800,251.529 142.991,251.384 143.226 M273.400 143.200 C 275.276 143.677,276.339 143.677,275.600 143.200 C 275.270 142.987,274.370 142.831,273.600 142.853 L 272.200 142.895 273.400 143.200 M247.600 144.000 C 246.805 144.514,247.804 144.514,249.000 144.000 L 249.800 143.656 249.000 143.634 C 248.560 143.622,247.930 143.787,247.600 144.000 M278.200 144.000 C 279.396 144.514,280.395 144.514,279.600 144.000 C 279.270 143.787,278.640 143.622,278.200 143.634 L 277.400 143.656 278.200 144.000 M244.600 144.800 C 244.285 145.309,245.212 145.309,246.000 144.800 C 246.488 144.485,246.436 144.411,245.724 144.406 C 245.242 144.403,244.736 144.580,244.600 144.800 M281.400 144.800 C 282.501 145.273,282.892 145.273,282.600 144.800 C 282.464 144.580,281.958 144.413,281.476 144.428 C 280.631 144.455,280.629 144.469,281.400 144.800 M284.000 145.600 C 284.330 145.813,284.870 145.988,285.200 145.988 C 285.733 145.988,285.733 145.945,285.200 145.600 C 284.870 145.387,284.330 145.212,284.000 145.212 C 283.467 145.212,283.467 145.255,284.000 145.600 M214.740 146.528 C 215.031 146.879,215.190 150.632,215.213 157.728 C 215.232 163.598,215.313 168.400,215.393 168.400 C 215.473 168.400,216.363 167.159,217.371 165.643 C 221.695 159.140,229.653 152.014,236.525 148.493 C 237.144 148.176,237.560 147.826,237.450 147.716 C 237.226 147.492,231.144 151.026,230.082 151.998 C 229.707 152.341,228.770 153.065,228.000 153.607 C 225.718 155.213,221.154 159.974,218.263 163.762 L 215.566 167.297 215.620 157.071 C 215.673 147.048,215.589 146.000,214.727 146.000 C 214.433 146.000,214.437 146.163,214.740 146.528 M239.200 146.800 C 237.419 147.775,238.094 147.775,240.200 146.800 C 241.080 146.393,241.530 146.054,241.200 146.046 C 240.870 146.039,239.970 146.378,239.200 146.800 M286.400 146.400 C 286.730 146.613,287.270 146.788,287.600 146.788 C 288.133 146.788,288.133 146.745,287.600 146.400 C 287.270 146.187,286.730 146.012,286.400 146.012 C 285.867 146.012,285.867 146.055,286.400 146.400 M161.000 227.567 C 161.000 295.628,161.084 307.761,161.556 307.918 C 161.911 308.037,162.004 307.929,161.812 307.620 C 161.648 307.354,161.520 273.716,161.529 232.868 C 161.537 192.021,161.421 156.080,161.272 153.000 C 161.122 149.920,161.000 183.475,161.000 227.567 M293.588 149.650 C 297.620 151.820,301.129 154.302,303.900 156.945 C 304.835 157.837,305.600 158.421,305.600 158.244 C 305.600 157.852,303.515 155.874,301.600 154.447 C 300.830 153.874,300.110 153.302,300.000 153.176 C 299.111 152.160,290.997 147.590,290.110 147.606 C 289.939 147.609,291.505 148.529,293.588 149.650 M132.099 227.667 C 132.020 291.111,131.897 307.575,131.500 307.735 C 131.108 307.893,131.111 307.944,131.513 307.968 C 132.410 308.024,132.407 308.332,132.302 227.400 L 132.198 147.800 132.099 227.667 M308.209 161.300 C 310.995 164.350,311.425 164.745,310.495 163.400 C 309.398 161.812,306.970 159.200,306.591 159.200 C 306.426 159.200,307.154 160.145,308.209 161.300 M312.681 166.989 C 313.492 168.193,314.223 169.110,314.306 169.027 C 314.519 168.814,311.864 164.816,311.503 164.807 C 311.340 164.803,311.870 165.785,312.681 166.989 M316.537 173.758 C 317.672 176.045,318.666 177.854,318.747 177.778 C 318.939 177.597,315.191 170.042,314.785 169.790 C 314.614 169.685,315.402 171.470,316.537 173.758 M318.846 178.600 C 318.853 178.820,319.206 179.720,319.629 180.600 C 320.052 181.480,320.286 181.750,320.149 181.200 C 319.867 180.067,318.825 177.988,318.846 178.600 M320.456 182.800 C 320.456 183.130,320.611 183.760,320.800 184.200 C 321.017 184.704,321.144 184.778,321.144 184.400 C 321.144 184.070,320.989 183.440,320.800 183.000 C 320.583 182.496,320.456 182.422,320.456 182.800 M238.000 185.798 C 236.790 186.069,235.170 186.588,234.400 186.952 C 233.630 187.315,233.360 187.506,233.800 187.376 C 238.599 185.961,239.703 185.800,244.600 185.806 C 249.487 185.812,251.594 186.148,255.051 187.475 C 255.476 187.638,255.634 187.578,255.472 187.316 C 255.202 186.879,255.072 186.838,250.800 185.837 C 247.712 185.114,241.139 185.093,238.000 185.798 M321.234 185.600 C 321.246 185.930,321.411 186.560,321.600 187.000 L 321.944 187.800 321.966 187.000 C 321.978 186.560,321.813 185.930,321.600 185.600 C 321.255 185.067,321.215 185.067,321.234 185.600 M230.500 188.626 C 229.565 189.187,228.800 189.742,228.800 189.861 C 228.800 190.038,232.204 188.219,232.767 187.741 C 233.403 187.201,231.897 187.789,230.500 188.626 M322.034 188.400 C 322.046 188.730,322.211 189.360,322.400 189.800 L 322.744 190.600 322.766 189.800 C 322.778 189.360,322.613 188.730,322.400 188.400 C 322.055 187.867,322.015 187.867,322.034 188.400 M259.222 189.470 C 259.234 189.651,259.774 190.219,260.422 190.730 C 261.070 191.242,261.590 191.512,261.578 191.330 C 261.566 191.149,261.026 190.581,260.378 190.070 C 259.730 189.558,259.210 189.288,259.222 189.470 M227.194 190.818 C 226.647 191.239,226.380 191.580,226.600 191.578 C 227.129 191.573,228.591 190.458,228.365 190.231 C 228.268 190.134,227.741 190.398,227.194 190.818 M262.000 191.766 C 262.000 191.926,262.698 192.899,263.552 193.928 C 264.406 194.958,265.320 196.220,265.585 196.734 C 265.849 197.248,266.158 197.576,266.271 197.462 C 266.499 197.234,264.626 194.450,263.026 192.638 C 262.462 191.999,262.000 191.606,262.000 191.766 M322.846 192.200 C 322.915 193.831,323.515 195.187,323.554 193.800 C 323.573 193.140,323.413 192.330,323.200 192.000 C 322.881 191.506,322.818 191.541,322.846 192.200 M221.168 197.096 C 219.010 200.087,217.725 202.566,216.347 206.400 L 215.412 209.000 215.291 257.977 C 215.198 295.610,215.058 307.090,214.685 307.542 C 214.293 308.018,214.315 308.092,214.800 307.932 C 215.327 307.758,215.426 301.766,215.614 258.367 C 215.788 218.210,215.929 208.739,216.369 207.600 C 218.376 202.409,219.057 200.973,220.662 198.536 C 221.654 197.031,222.551 195.665,222.656 195.500 C 222.761 195.335,222.777 195.200,222.691 195.200 C 222.606 195.200,221.920 196.053,221.168 197.096 M323.835 197.800 C 323.982 198.900,324.169 199.875,324.251 199.967 C 324.610 200.368,324.346 196.939,323.977 196.400 C 323.686 195.974,323.645 196.380,323.835 197.800 M266.675 198.700 C 266.812 199.085,267.043 199.580,267.188 199.800 C 267.333 200.020,267.858 201.550,268.355 203.200 C 268.851 204.850,269.425 206.753,269.629 207.428 C 269.833 208.104,270.018 209.274,270.040 210.028 C 270.062 210.783,270.237 211.850,270.430 212.400 C 270.665 213.073,270.706 212.615,270.556 211.000 C 270.338 208.644,269.121 203.376,268.431 201.800 C 267.017 198.567,266.743 198.000,266.594 198.000 C 266.501 198.000,266.537 198.315,266.675 198.700 M324.712 206.600 C 324.819 209.460,324.972 211.875,325.053 211.967 C 325.335 212.286,325.118 203.393,324.820 202.400 C 324.654 201.850,324.606 203.740,324.712 206.600 M270.997 260.767 C 271.000 302.159,271.071 307.757,271.600 307.932 C 272.092 308.094,272.110 308.021,271.702 307.526 C 271.312 307.053,271.181 296.811,271.099 260.361 L 270.995 213.800 270.997 260.767 M324.800 268.367 C 324.800 299.326,324.695 307.576,324.300 307.735 C 324.001 307.856,324.082 307.950,324.500 307.968 C 325.162 307.998,325.200 305.869,325.200 268.600 C 325.200 246.930,325.110 229.200,325.000 229.200 C 324.890 229.200,324.800 246.825,324.800 268.367 M314.319 307.898 C 316.144 307.972,319.024 307.972,320.719 307.897 C 322.414 307.822,320.920 307.761,317.400 307.762 C 313.880 307.762,312.494 307.824,314.319 307.898 " stroke="none" fill="#249cdb" fill-rule="evenodd"></path></g></svg>